{"glyphs":{"0":{"ha":675,"x_min":0,"x_max":606,"o":"m 413 815 l 501 904 l 501 114 l 413 203 l 413 815 m 192 203 l 103 114 l 103 904 l 192 815 l 192 203 m 10 1018 l 594 1018 l 506 929 l 99 929 l 10 1018 m 403 192 l 492 103 l 114 103 l 203 192 l 403 192 m 517 919 l 606 1008 l 606 10 l 517 99 l 517 919 m 506 89 l 594 0 l 10 0 l 99 89 l 506 89 m 114 915 l 492 915 l 403 826 l 203 826 l 114 915 m 89 99 l 0 10 l 0 1008 l 89 919 l 89 99 z "},"1":{"ha":365,"x_min":0,"x_max":296,"o":"m 182 915 l 93 826 l 10 826 l 99 915 l 182 915 m 285 1018 l 196 929 l 99 929 l 10 1018 l 285 1018 m 86 922 l 0 836 l 0 1008 l 86 922 m 199 86 l 285 0 l 114 0 l 199 86 m 207 919 l 296 1008 l 296 10 l 207 99 l 207 919 m 192 904 l 192 99 l 103 10 l 103 815 l 192 904 z "},"2":{"ha":675,"x_min":0,"x_max":606,"o":"m 517 919 l 606 1008 l 606 424 l 517 513 l 517 919 m 501 904 l 501 526 l 413 615 l 413 815 l 501 904 m 10 0 l 99 89 l 506 89 l 594 0 l 10 0 m 89 99 l 0 10 l 0 594 l 89 506 l 89 99 m 114 103 l 203 192 l 403 192 l 492 103 l 114 103 m 508 210 l 424 296 l 594 296 l 508 210 m 506 501 l 594 413 l 203 413 l 114 501 l 506 501 m 103 822 l 103 904 l 192 815 l 192 733 l 103 822 m 517 196 l 606 285 l 606 10 l 517 99 l 517 196 m 594 1018 l 506 929 l 99 929 l 10 1018 l 594 1018 m 501 196 l 501 114 l 413 203 l 413 285 l 501 196 m 89 822 l 0 733 l 0 1008 l 89 919 l 89 822 m 96 808 l 182 722 l 10 722 l 96 808 m 103 114 l 103 492 l 192 403 l 192 203 l 103 114 m 99 517 l 10 606 l 403 606 l 492 517 l 99 517 m 492 915 l 403 826 l 203 826 l 114 915 l 492 915 z "},"3":{"ha":675,"x_min":0,"x_max":606,"o":"m 99 517 l 10 606 l 403 606 l 492 517 l 99 517 m 86 508 l 0 424 l 0 594 l 86 508 m 86 922 l 0 836 l 0 1008 l 86 922 m 10 1018 l 594 1018 l 506 929 l 99 929 l 10 1018 m 506 89 l 594 0 l 10 0 l 99 89 l 506 89 m 492 501 l 403 413 l 10 413 l 99 501 l 492 501 m 517 919 l 606 1008 l 606 10 l 517 99 l 517 919 m 86 96 l 0 10 l 0 182 l 86 96 m 413 615 l 413 815 l 501 904 l 501 526 l 413 615 m 413 203 l 413 403 l 501 492 l 501 114 l 413 203 m 99 915 l 492 915 l 403 826 l 10 826 l 99 915 m 99 103 l 10 192 l 403 192 l 492 103 l 99 103 z "},"4":{"ha":674,"x_min":0,"x_max":604,"o":"m 413 99 l 413 285 l 501 196 l 501 10 l 413 99 m 399 919 l 399 319 l 310 408 l 310 1008 l 399 919 m 399 285 l 399 99 l 310 10 l 310 196 l 399 285 m 422 310 l 511 399 l 594 399 l 506 310 l 422 310 m 406 932 l 319 1018 l 492 1018 l 406 932 m 413 319 l 413 919 l 501 1008 l 501 408 l 413 319 m 406 86 l 492 0 l 319 0 l 406 86 m 519 303 l 604 389 l 604 217 l 519 303 m 113 310 l 201 399 l 300 399 l 389 310 l 113 310 m 10 1018 l 182 1018 l 96 932 l 10 1018 m 192 1008 l 192 408 l 103 319 l 103 919 l 192 1008 m 389 296 l 300 207 l 10 207 l 99 296 l 389 296 m 89 306 l 0 217 l 0 1008 l 89 919 l 89 306 m 506 296 l 594 207 l 511 207 l 422 296 l 506 296 z "},"5":{"ha":675,"x_min":0,"x_max":606,"o":"m 492 501 l 403 413 l 10 413 l 99 501 l 492 501 m 103 114 l 103 196 l 192 285 l 192 203 l 103 114 m 96 210 l 10 296 l 182 296 l 96 210 m 517 919 l 606 1008 l 606 733 l 517 822 l 517 919 m 89 99 l 0 10 l 0 285 l 89 196 l 89 99 m 517 506 l 606 594 l 606 10 l 517 99 l 517 506 m 510 808 l 594 722 l 424 722 l 510 808 m 506 89 l 594 0 l 10 0 l 99 89 l 506 89 m 103 526 l 103 904 l 192 815 l 192 615 l 103 526 m 89 513 l 0 424 l 0 1008 l 89 919 l 89 513 m 501 904 l 501 822 l 413 733 l 413 815 l 501 904 m 594 1018 l 506 929 l 99 929 l 10 1018 l 594 1018 m 413 203 l 413 403 l 501 492 l 501 114 l 413 203 m 492 915 l 403 826 l 203 826 l 114 915 l 492 915 m 114 517 l 203 606 l 594 606 l 506 517 l 114 517 m 114 103 l 203 192 l 403 192 l 492 103 l 114 103 z "},"6":{"ha":674,"x_min":-1,"x_max":604,"o":"m 88 99 l -1 10 l -1 1008 l 88 919 l 88 99 m 411 203 l 411 403 l 500 492 l 500 114 l 411 203 m 201 413 l 113 501 l 490 501 l 401 413 l 201 413 m 504 89 l 593 0 l 8 0 l 97 89 l 504 89 m 593 1018 l 504 929 l 97 929 l 8 1018 l 593 1018 m 101 114 l 101 492 l 190 403 l 190 203 l 101 114 m 508 808 l 593 722 l 422 722 l 508 808 m 113 517 l 201 606 l 593 606 l 504 517 l 113 517 m 515 919 l 604 1008 l 604 733 l 515 822 l 515 919 m 490 915 l 401 826 l 201 826 l 113 915 l 490 915 m 500 904 l 500 822 l 411 733 l 411 815 l 500 904 m 113 103 l 201 192 l 401 192 l 490 103 l 113 103 m 604 10 l 515 99 l 515 506 l 604 594 l 604 10 m 101 526 l 101 904 l 190 815 l 190 615 l 101 526 z "},"7":{"ha":675,"x_min":0,"x_max":606,"o":"m 292 508 l 207 424 l 207 594 l 292 508 m 492 501 l 403 413 l 217 413 l 306 501 l 492 501 m 306 517 l 217 606 l 403 606 l 492 517 l 306 517 m 492 915 l 403 826 l 203 826 l 114 915 l 492 915 m 89 822 l 0 733 l 0 1008 l 89 919 l 89 822 m 103 822 l 103 904 l 192 815 l 192 733 l 103 822 m 517 919 l 606 1008 l 606 10 l 517 99 l 517 919 m 501 904 l 501 526 l 413 615 l 413 815 l 501 904 m 501 492 l 501 99 l 413 10 l 413 403 l 501 492 m 96 808 l 182 722 l 10 722 l 96 808 m 508 86 l 594 0 l 424 0 l 508 86 m 594 1018 l 506 929 l 99 929 l 10 1018 l 594 1018 z "},"8":{"ha":675,"x_min":0,"x_max":606,"o":"m 89 99 l 0 10 l 0 403 l 89 492 l 89 99 m 114 915 l 492 915 l 403 826 l 203 826 l 114 915 m 89 919 l 89 526 l 0 615 l 0 1008 l 89 919 m 517 919 l 606 1008 l 606 615 l 517 526 l 517 919 m 413 815 l 501 904 l 501 526 l 413 615 l 413 815 m 492 103 l 114 103 l 203 192 l 403 192 l 492 103 m 10 1018 l 594 1018 l 506 929 l 99 929 l 10 1018 m 413 403 l 501 492 l 501 114 l 413 203 l 413 403 m 192 615 l 103 526 l 103 904 l 192 815 l 192 615 m 594 0 l 10 0 l 99 89 l 506 89 l 594 0 m 192 203 l 103 114 l 103 492 l 192 403 l 192 203 m 517 99 l 517 492 l 606 403 l 606 10 l 517 99 m 203 606 l 403 606 l 492 517 l 114 517 l 203 606 m 492 501 l 403 413 l 203 413 l 114 501 l 492 501 z "},"9":{"ha":675,"x_min":0,"x_max":606,"o":"m 501 492 l 501 114 l 413 203 l 413 403 l 501 492 m 89 99 l 0 10 l 0 285 l 89 196 l 89 99 m 103 114 l 103 196 l 192 285 l 192 203 l 103 114 m 96 210 l 10 296 l 182 296 l 96 210 m 506 89 l 594 0 l 10 0 l 99 89 l 506 89 m 0 1008 l 89 919 l 89 513 l 0 424 l 0 1008 m 413 615 l 413 815 l 501 904 l 501 526 l 413 615 m 492 915 l 403 826 l 203 826 l 114 915 l 492 915 m 10 1018 l 594 1018 l 506 929 l 99 929 l 10 1018 m 403 606 l 492 517 l 114 517 l 203 606 l 403 606 m 192 815 l 192 615 l 103 526 l 103 904 l 192 815 m 114 103 l 203 192 l 403 192 l 492 103 l 114 103 m 517 919 l 606 1008 l 606 10 l 517 99 l 517 919 m 492 501 l 403 413 l 10 413 l 99 501 l 492 501 z "},"\u0000":{"ha":0,"x_min":0,"x_max":0,"o":""},"\r":{"ha":472,"x_min":0,"x_max":0,"o":""}," ":{"ha":472,"x_min":0,"x_max":0,"o":""},"D":{"ha":674,"x_min":0,"x_max":604,"o":"m 506 89 l 594 0 l 10 0 l 99 89 l 506 89 m 99 929 l 10 1018 l 403 1018 l 492 929 l 99 929 m 201 826 l 113 915 l 492 915 l 403 826 l 201 826 m 413 203 l 413 815 l 501 904 l 501 114 l 413 203 m 89 99 l 0 10 l 0 1008 l 89 919 l 89 99 m 515 99 l 515 904 l 604 815 l 604 10 l 515 99 m 192 203 l 103 114 l 103 904 l 192 815 l 192 203 m 403 192 l 492 103 l 113 103 l 201 192 l 403 192 z "},"E":{"ha":675,"x_min":0,"x_max":606,"o":"m 506 89 l 594 0 l 10 0 l 99 89 l 506 89 m 506 915 l 594 826 l 203 826 l 114 915 l 506 915 m 506 103 l 114 103 l 203 192 l 594 192 l 506 103 m 10 1018 l 594 1018 l 506 929 l 99 929 l 10 1018 m 89 99 l 0 10 l 0 1008 l 89 919 l 89 99 m 103 526 l 103 904 l 192 815 l 192 615 l 103 526 m 192 403 l 192 203 l 103 114 l 103 492 l 192 403 m 114 517 l 203 606 l 594 606 l 506 517 l 114 517 m 519 96 l 606 182 l 606 10 l 519 96 m 519 508 l 606 594 l 606 424 l 519 508 m 519 922 l 606 1008 l 606 836 l 519 922 m 506 501 l 594 413 l 203 413 l 114 501 l 506 501 z "},"F":{"ha":675,"x_min":0,"x_max":606,"o":"m 519 508 l 606 594 l 606 424 l 519 508 m 114 517 l 203 606 l 594 606 l 506 517 l 114 517 m 506 501 l 594 413 l 203 413 l 114 501 l 506 501 m 96 86 l 182 0 l 10 0 l 96 86 m 506 915 l 594 826 l 203 826 l 114 915 l 506 915 m 89 99 l 0 10 l 0 1008 l 89 919 l 89 99 m 103 99 l 103 492 l 192 403 l 192 10 l 103 99 m 103 526 l 103 904 l 192 815 l 192 615 l 103 526 m 10 1018 l 594 1018 l 506 929 l 99 929 l 10 1018 m 519 922 l 606 1008 l 606 836 l 519 922 z "},"G":{"ha":674,"x_min":-1,"x_max":604,"o":"m 8 1018 l 593 1018 l 504 929 l 97 929 l 8 1018 m 518 922 l 604 1008 l 604 836 l 518 922 m 101 114 l 101 904 l 190 815 l 190 203 l 101 114 m 500 492 l 500 114 l 411 203 l 411 403 l 500 492 m 515 506 l 604 594 l 604 10 l 515 99 l 515 506 m 394 508 l 308 424 l 308 594 l 394 508 m 8 0 l 97 89 l 504 89 l 593 0 l 8 0 m 593 606 l 504 517 l 407 517 l 318 606 l 593 606 m 113 103 l 201 192 l 401 192 l 490 103 l 113 103 m 504 915 l 593 826 l 201 826 l 113 915 l 504 915 m 88 99 l -1 10 l -1 1008 l 88 919 l 88 99 m 490 501 l 401 413 l 318 413 l 407 501 l 490 501 z "},"H":{"ha":675,"x_min":0,"x_max":606,"o":"m 606 1008 l 606 10 l 517 99 l 517 508 l 517 919 l 606 1008 m 501 99 l 413 10 l 413 403 l 501 492 l 501 99 m 594 1018 l 508 932 l 424 1018 l 594 1018 m 501 526 l 413 615 l 413 1008 l 501 919 l 501 526 m 594 0 l 424 0 l 508 86 l 594 0 m 203 606 l 403 606 l 492 517 l 114 517 l 203 606 m 103 919 l 192 1008 l 192 615 l 103 526 l 103 919 m 10 1018 l 182 1018 l 96 932 l 10 1018 m 103 492 l 192 403 l 192 10 l 103 99 l 103 492 m 0 10 l 0 1008 l 89 919 l 89 99 l 0 10 m 403 413 l 203 413 l 114 501 l 492 501 l 403 413 m 182 0 l 10 0 l 96 86 l 182 0 z "},"I":{"ha":263,"x_min":1,"x_max":193,"o":"m 11 1018 l 183 1018 l 97 932 l 11 1018 m 97 86 l 183 0 l 11 0 l 97 86 m 90 99 l 1 10 l 1 1008 l 90 919 l 90 99 m 104 919 l 193 1008 l 193 10 l 104 99 l 104 919 z "},"J":{"ha":675,"x_min":0,"x_max":606,"o":"m 501 919 l 501 114 l 413 203 l 413 1008 l 501 919 m 424 1018 l 594 1018 l 510 932 l 424 1018 m 517 919 l 606 1008 l 606 10 l 517 99 l 517 919 m 506 89 l 594 0 l 10 0 l 99 89 l 506 89 m 96 519 l 10 606 l 182 606 l 96 519 m 114 103 l 203 192 l 403 192 l 492 103 l 114 103 m 103 114 l 103 506 l 192 594 l 192 203 l 103 114 m 89 99 l 0 10 l 0 594 l 89 506 l 89 99 z "},"K":{"ha":674,"x_min":0,"x_max":604,"o":"m 508 313 l 422 399 l 594 399 l 508 313 m 515 919 l 604 1008 l 604 615 l 515 526 l 515 919 m 515 300 l 604 389 l 604 10 l 515 99 l 515 300 m 89 99 l 0 10 l 0 1008 l 89 919 l 89 99 m 103 99 l 103 492 l 192 403 l 192 10 l 103 99 m 182 0 l 10 0 l 96 86 l 182 0 m 182 1018 l 96 932 l 10 1018 l 182 1018 m 508 86 l 594 0 l 422 0 l 508 86 m 492 501 l 403 413 l 201 413 l 113 501 l 492 501 m 413 10 l 413 389 l 501 300 l 501 99 l 413 10 m 103 526 l 103 919 l 192 1008 l 192 615 l 103 526 m 113 517 l 201 606 l 403 606 l 492 517 l 113 517 m 422 1018 l 594 1018 l 508 932 l 422 1018 m 501 919 l 501 526 l 413 615 l 413 1008 l 501 919 z "},"L":{"ha":674,"x_min":0,"x_max":604,"o":"m 96 932 l 10 1018 l 182 1018 l 96 932 m 103 114 l 103 919 l 192 1008 l 192 203 l 103 114 m 89 99 l 0 10 l 0 1008 l 89 919 l 89 99 m 113 103 l 201 192 l 594 192 l 506 103 l 113 103 m 506 89 l 594 0 l 10 0 l 99 89 l 506 89 m 518 96 l 604 182 l 604 10 l 518 96 z "},"M":{"ha":1088,"x_min":0,"x_max":1018,"o":"m 914 904 l 914 99 l 825 10 l 825 815 l 914 904 m 904 915 l 815 826 l 615 826 l 526 915 l 904 915 m 515 99 l 515 904 l 604 815 l 604 10 l 515 99 m 1007 1018 l 918 929 l 99 929 l 10 1018 l 1007 1018 m 508 86 l 594 0 l 422 0 l 508 86 m 103 99 l 103 904 l 192 815 l 192 10 l 103 99 m 929 919 l 1018 1008 l 1018 10 l 929 99 l 929 919 m 501 904 l 501 99 l 413 10 l 413 815 l 501 904 m 89 99 l 0 10 l 0 1008 l 89 919 l 89 99 m 922 86 l 1007 0 l 836 0 l 922 86 m 96 86 l 182 0 l 10 0 l 96 86 m 492 915 l 403 826 l 203 826 l 114 915 l 492 915 z "},"N":{"ha":674,"x_min":0,"x_max":604,"o":"m 492 915 l 403 826 l 201 826 l 113 915 l 492 915 m 103 99 l 103 904 l 192 815 l 192 10 l 103 99 m 515 99 l 515 904 l 604 815 l 604 10 l 515 99 m 89 99 l 0 10 l 0 1008 l 89 919 l 89 99 m 96 86 l 182 0 l 10 0 l 96 86 m 413 10 l 413 815 l 501 904 l 501 99 l 413 10 m 403 1018 l 492 929 l 99 929 l 10 1018 l 403 1018 m 508 86 l 594 0 l 422 0 l 508 86 z "},"O":{"ha":674,"x_min":0,"x_max":604,"o":"m 515 919 l 604 1008 l 604 10 l 515 99 l 515 919 m 506 89 l 594 0 l 10 0 l 99 89 l 506 89 m 192 815 l 192 203 l 103 114 l 103 904 l 192 815 m 413 815 l 501 904 l 501 114 l 413 203 l 413 815 m 113 915 l 492 915 l 403 826 l 201 826 l 113 915 m 403 192 l 492 103 l 113 103 l 201 192 l 403 192 m 10 1018 l 594 1018 l 506 929 l 99 929 l 10 1018 m 89 99 l 0 10 l 0 1008 l 89 919 l 89 99 z "},"P":{"ha":675,"x_min":1,"x_max":606,"o":"m 104 99 l 104 492 l 193 403 l 193 10 l 104 99 m 517 919 l 606 1008 l 606 424 l 517 513 l 517 919 m 493 915 l 404 826 l 203 826 l 114 915 l 493 915 m 11 1018 l 596 1018 l 507 929 l 100 929 l 11 1018 m 90 99 l 1 10 l 1 1008 l 90 919 l 90 99 m 503 904 l 503 526 l 414 615 l 414 815 l 503 904 m 193 815 l 193 615 l 104 526 l 104 904 l 193 815 m 97 86 l 183 0 l 11 0 l 97 86 m 507 501 l 596 413 l 203 413 l 114 501 l 507 501 m 404 606 l 493 517 l 114 517 l 203 606 l 404 606 z "},"Q":{"ha":675,"x_min":0,"x_max":606,"o":"m 296 79 l 296 -4 l 207 -93 l 207 -10 l 296 79 m 10 1018 l 594 1018 l 506 929 l 99 929 l 10 1018 m 89 99 l 0 10 l 0 1008 l 89 919 l 89 99 m 114 915 l 492 915 l 403 826 l 203 826 l 114 915 m 319 89 l 506 89 l 594 0 l 408 0 l 319 89 m 192 815 l 192 203 l 103 114 l 103 904 l 192 815 m 285 89 l 196 0 l 10 0 l 99 89 l 285 89 m 606 1008 l 606 10 l 517 99 l 517 919 l 606 1008 m 403 192 l 492 103 l 114 103 l 203 192 l 403 192 m 413 815 l 501 904 l 501 114 l 413 203 l 413 815 m 310 -4 l 310 79 l 399 -10 l 399 -93 l 310 -4 m 303 -17 l 389 -103 l 217 -103 l 303 -17 z "},"R":{"ha":676,"x_min":1,"x_max":607,"o":"m 415 615 l 415 817 l 504 906 l 504 526 l 490 540 l 415 615 m 194 817 l 194 615 l 106 526 l 106 906 l 194 817 m 13 1018 l 597 1018 l 508 929 l 304 929 l 279 929 l 101 929 l 13 1018 m 304 915 l 493 915 l 404 826 l 204 826 l 115 915 l 279 915 l 304 915 m 90 100 l 1 11 l 1 1008 l 90 919 l 90 510 l 90 510 l 90 100 m 518 100 l 518 492 l 607 403 l 607 11 l 518 100 m 542 943 l 607 1008 l 607 615 l 518 526 l 518 919 l 542 943 l 542 943 m 493 503 l 404 414 l 204 414 l 115 503 l 493 503 m 99 86 l 183 0 l 13 0 l 99 86 m 511 86 l 597 0 l 425 0 l 511 86 m 106 492 l 194 403 l 194 11 l 106 100 l 106 492 m 504 492 l 504 100 l 415 11 l 415 403 l 504 492 m 404 606 l 493 517 l 115 517 l 204 606 l 404 606 z "},"S":{"ha":674,"x_min":-1,"x_max":604,"o":"m 594 1018 l 506 929 l 99 929 l 10 1018 l 594 1018 m 88 513 l -1 424 l -1 1008 l 88 919 l 88 513 m 103 526 l 103 904 l 192 815 l 192 615 l 103 526 m 501 904 l 501 822 l 413 733 l 413 815 l 501 904 m 113 103 l 201 192 l 401 192 l 490 103 l 113 103 m 490 915 l 401 826 l 201 826 l 113 915 l 490 915 m 113 517 l 201 606 l 594 606 l 506 517 l 113 517 m 490 501 l 401 413 l 10 413 l 99 501 l 490 501 m 413 203 l 413 403 l 501 492 l 501 114 l 413 203 m 508 808 l 594 722 l 422 722 l 508 808 m 96 210 l 10 296 l 181 296 l 96 210 m 515 919 l 604 1008 l 604 733 l 515 822 l 515 919 m 103 114 l 103 196 l 192 285 l 192 203 l 103 114 m 88 99 l -1 10 l -1 285 l 88 196 l 88 99 m 515 506 l 604 594 l 604 10 l 515 99 l 515 506 m 506 89 l 594 0 l 10 0 l 99 89 l 506 89 z "},"T":{"ha":676,"x_min":1,"x_max":607,"o":"m 88 922 l 1 836 l 1 1008 l 88 922 m 11 1018 l 596 1018 l 507 929 l 100 929 l 11 1018 m 521 922 l 607 1008 l 607 836 l 521 922 m 304 86 l 390 0 l 218 0 l 304 86 m 311 99 l 311 904 l 400 815 l 400 10 l 311 99 m 297 904 l 297 99 l 208 10 l 208 815 l 297 904 m 286 915 l 197 826 l 11 826 l 100 915 l 286 915 m 507 915 l 596 826 l 410 826 l 321 915 l 507 915 z "},"U":{"ha":676,"x_min":1,"x_max":607,"o":"m 115 103 l 204 192 l 404 192 l 493 103 l 115 103 m 518 919 l 607 1008 l 607 10 l 518 99 l 518 919 m 97 932 l 11 1018 l 183 1018 l 97 932 m 90 99 l 1 10 l 1 1008 l 90 919 l 90 99 m 104 114 l 104 919 l 193 1008 l 193 203 l 104 114 m 425 1018 l 596 1018 l 511 932 l 425 1018 m 507 89 l 596 0 l 11 0 l 100 89 l 507 89 m 503 919 l 503 114 l 414 203 l 414 1008 l 503 919 z "},"V":{"ha":676,"x_min":1,"x_max":607,"o":"m 493 89 l 404 0 l 204 0 l 115 89 l 493 89 m 97 932 l 11 1018 l 183 1018 l 97 932 m 193 1008 l 193 203 l 104 114 l 104 919 l 193 1008 m 503 114 l 414 203 l 414 1008 l 503 919 l 503 114 m 425 1018 l 596 1018 l 511 932 l 425 1018 m 90 919 l 90 114 l 1 203 l 1 1008 l 90 919 m 115 103 l 204 192 l 404 192 l 493 103 l 115 103 m 518 919 l 607 1008 l 607 203 l 518 114 l 518 919 z "},"W":{"ha":1088,"x_min":0,"x_max":1018,"o":"m 919 89 l 1008 0 l 10 0 l 99 89 l 919 89 m 89 99 l 0 10 l 0 1008 l 89 919 l 89 99 m 501 919 l 501 114 l 413 203 l 413 1008 l 501 919 m 103 114 l 103 919 l 192 1008 l 192 203 l 103 114 m 515 114 l 515 919 l 606 1008 l 606 203 l 515 114 m 96 932 l 10 1018 l 182 1018 l 96 932 m 526 103 l 615 192 l 815 192 l 904 103 l 526 103 m 929 919 l 1018 1008 l 1018 10 l 929 99 l 929 919 m 113 103 l 201 192 l 403 192 l 492 103 l 113 103 m 914 919 l 914 114 l 825 203 l 825 1008 l 914 919 m 508 932 l 422 1018 l 594 1018 l 508 932 m 836 1018 l 1008 1018 l 922 932 l 836 1018 z "},"X":{"ha":675,"x_min":0,"x_max":606,"o":"m 89 99 l 0 10 l 0 403 l 89 492 l 89 99 m 89 919 l 89 526 l 0 615 l 0 1008 l 89 919 m 96 932 l 10 1018 l 182 1018 l 96 932 m 182 0 l 10 0 l 96 86 l 182 0 m 103 492 l 192 403 l 192 10 l 103 99 l 103 492 m 517 99 l 517 492 l 606 403 l 606 10 l 517 99 m 492 501 l 403 413 l 203 413 l 114 501 l 492 501 m 103 526 l 103 919 l 192 1008 l 192 615 l 103 526 m 501 492 l 501 99 l 413 10 l 413 403 l 501 492 m 424 1018 l 594 1018 l 510 932 l 424 1018 m 501 526 l 413 615 l 413 1008 l 501 919 l 501 526 m 510 86 l 594 0 l 424 0 l 510 86 m 114 517 l 203 606 l 403 606 l 492 517 l 114 517 m 517 919 l 606 1008 l 606 615 l 517 526 l 517 919 z "},"Y":{"ha":675,"x_min":0,"x_max":606,"o":"m 89 513 l 0 424 l 0 1008 l 89 919 l 89 513 m 10 1018 l 182 1018 l 96 932 l 10 1018 m 303 86 l 389 0 l 217 0 l 303 86 m 296 492 l 296 99 l 207 10 l 207 403 l 296 492 m 310 99 l 310 492 l 399 403 l 399 10 l 310 99 m 506 501 l 594 413 l 408 413 l 319 501 l 506 501 m 285 501 l 196 413 l 10 413 l 99 501 l 285 501 m 192 1008 l 192 615 l 103 526 l 103 919 l 192 1008 m 114 517 l 203 606 l 403 606 l 492 517 l 303 517 l 114 517 m 424 1018 l 594 1018 l 508 932 l 424 1018 m 413 1008 l 501 919 l 501 526 l 413 615 l 413 1008 m 517 919 l 606 1008 l 606 424 l 517 513 l 517 919 z "},"Z":{"ha":675,"x_min":0,"x_max":606,"o":"m 86 922 l 0 836 l 0 1008 l 86 922 m 596 1018 l 507 929 l 100 929 l 11 1018 l 596 1018 m 414 815 l 503 904 l 503 526 l 414 615 l 414 815 m 492 915 l 403 826 l 11 826 l 100 915 l 492 915 m 104 114 l 104 492 l 193 403 l 193 203 l 104 114 m 11 0 l 100 89 l 507 89 l 596 0 l 11 0 m 517 919 l 606 1008 l 606 424 l 517 513 l 517 919 m 100 517 l 11 606 l 403 606 l 492 517 l 100 517 m 519 96 l 606 182 l 606 10 l 519 96 m 89 99 l 0 10 l 0 594 l 89 506 l 89 99 m 507 501 l 596 413 l 203 413 l 114 501 l 507 501 m 114 103 l 203 192 l 596 192 l 507 103 l 114 103 z "},"Α":{"ha":675,"x_min":0,"x_max":606,"o":"m 403 606 l 492 517 l 114 517 l 203 606 l 403 606 m 517 919 l 606 1008 l 606 10 l 517 99 l 517 919 m 99 929 l 10 1018 l 594 1018 l 506 929 l 99 929 m 89 99 l 0 10 l 0 1008 l 79 929 l 79 929 l 85 924 l 89 919 l 89 99 m 508 86 l 594 0 l 424 0 l 508 86 m 492 501 l 403 413 l 203 413 l 114 501 l 492 501 m 182 0 l 10 0 l 96 86 l 182 0 m 103 99 l 103 492 l 192 403 l 192 10 l 103 99 m 501 492 l 501 99 l 413 10 l 413 403 l 501 492 m 203 826 l 114 915 l 492 915 l 403 826 l 203 826 m 501 904 l 501 526 l 413 615 l 413 815 l 501 904 m 192 815 l 192 615 l 103 526 l 103 904 l 192 815 z "},"Β":{"ha":675,"x_min":0,"x_max":606,"o":"m 492 517 l 114 517 l 203 606 l 403 606 l 492 517 m 517 99 l 517 904 l 606 815 l 606 10 l 517 99 m 89 99 l 0 10 l 0 1008 l 89 919 l 89 99 m 99 929 l 10 1018 l 403 1018 l 492 929 l 99 929 m 506 89 l 594 0 l 10 0 l 99 89 l 506 89 m 192 815 l 192 615 l 103 526 l 103 904 l 192 815 m 492 501 l 403 413 l 203 413 l 114 501 l 492 501 m 413 203 l 413 403 l 501 492 l 501 114 l 413 203 m 501 526 l 413 615 l 413 815 l 501 904 l 501 526 m 403 192 l 492 103 l 114 103 l 203 192 l 403 192 m 203 826 l 114 915 l 492 915 l 403 826 l 203 826 m 192 203 l 103 114 l 103 492 l 192 403 l 192 203 z "},"Ε":{"ha":675,"x_min":0,"x_max":606,"o":"m 506 89 l 594 0 l 10 0 l 99 89 l 506 89 m 506 915 l 594 826 l 203 826 l 114 915 l 506 915 m 506 103 l 114 103 l 203 192 l 594 192 l 506 103 m 10 1018 l 594 1018 l 506 929 l 99 929 l 10 1018 m 89 99 l 0 10 l 0 1008 l 89 919 l 89 99 m 103 526 l 103 904 l 192 815 l 192 615 l 103 526 m 192 403 l 192 203 l 103 114 l 103 492 l 192 403 m 114 517 l 203 606 l 594 606 l 506 517 l 114 517 m 519 96 l 606 182 l 606 10 l 519 96 m 519 508 l 606 594 l 606 424 l 519 508 m 519 922 l 606 1008 l 606 836 l 519 922 m 506 501 l 594 413 l 203 413 l 114 501 l 506 501 z "},"Ζ":{"ha":675,"x_min":0,"x_max":606,"o":"m 86 922 l 0 836 l 0 1008 l 86 922 m 596 1018 l 507 929 l 100 929 l 11 1018 l 596 1018 m 414 815 l 503 904 l 503 526 l 414 615 l 414 815 m 492 915 l 403 826 l 11 826 l 100 915 l 492 915 m 104 114 l 104 492 l 193 403 l 193 203 l 104 114 m 11 0 l 100 89 l 507 89 l 596 0 l 11 0 m 517 919 l 606 1008 l 606 424 l 517 513 l 517 919 m 100 517 l 11 606 l 403 606 l 492 517 l 100 517 m 519 96 l 606 182 l 606 10 l 519 96 m 89 99 l 0 10 l 0 594 l 89 506 l 89 99 m 507 501 l 596 413 l 203 413 l 114 501 l 507 501 m 114 103 l 203 192 l 596 192 l 507 103 l 114 103 z "},"Η":{"ha":675,"x_min":0,"x_max":606,"o":"m 606 1008 l 606 10 l 517 99 l 517 508 l 517 919 l 606 1008 m 501 99 l 413 10 l 413 403 l 501 492 l 501 99 m 594 1018 l 508 932 l 424 1018 l 594 1018 m 501 526 l 413 615 l 413 1008 l 501 919 l 501 526 m 594 0 l 424 0 l 508 86 l 594 0 m 203 606 l 403 606 l 492 517 l 114 517 l 203 606 m 103 919 l 192 1008 l 192 615 l 103 526 l 103 919 m 10 1018 l 182 1018 l 96 932 l 10 1018 m 103 492 l 192 403 l 192 10 l 103 99 l 103 492 m 0 10 l 0 1008 l 89 919 l 89 99 l 0 10 m 403 413 l 203 413 l 114 501 l 492 501 l 403 413 m 182 0 l 10 0 l 96 86 l 182 0 z "},"Ι":{"ha":263,"x_min":1,"x_max":193,"o":"m 11 1018 l 183 1018 l 97 932 l 11 1018 m 97 86 l 183 0 l 11 0 l 97 86 m 90 99 l 1 10 l 1 1008 l 90 919 l 90 99 m 104 919 l 193 1008 l 193 10 l 104 99 l 104 919 z "},"Κ":{"ha":674,"x_min":0,"x_max":604,"o":"m 508 313 l 422 399 l 594 399 l 508 313 m 515 919 l 604 1008 l 604 615 l 515 526 l 515 919 m 515 300 l 604 389 l 604 10 l 515 99 l 515 300 m 89 99 l 0 10 l 0 1008 l 89 919 l 89 99 m 103 99 l 103 492 l 192 403 l 192 10 l 103 99 m 182 0 l 10 0 l 96 86 l 182 0 m 182 1018 l 96 932 l 10 1018 l 182 1018 m 508 86 l 594 0 l 422 0 l 508 86 m 492 501 l 403 413 l 201 413 l 113 501 l 492 501 m 413 10 l 413 389 l 501 300 l 501 99 l 413 10 m 103 526 l 103 919 l 192 1008 l 192 615 l 103 526 m 113 517 l 201 606 l 403 606 l 492 517 l 113 517 m 422 1018 l 594 1018 l 508 932 l 422 1018 m 501 919 l 501 526 l 413 615 l 413 1008 l 501 919 z "},"Μ":{"ha":1088,"x_min":0,"x_max":1018,"o":"m 914 904 l 914 99 l 825 10 l 825 815 l 914 904 m 904 915 l 815 826 l 615 826 l 526 915 l 904 915 m 515 99 l 515 904 l 604 815 l 604 10 l 515 99 m 1007 1018 l 918 929 l 99 929 l 10 1018 l 1007 1018 m 508 86 l 594 0 l 422 0 l 508 86 m 103 99 l 103 904 l 192 815 l 192 10 l 103 99 m 929 919 l 1018 1008 l 1018 10 l 929 99 l 929 919 m 501 904 l 501 99 l 413 10 l 413 815 l 501 904 m 89 99 l 0 10 l 0 1008 l 89 919 l 89 99 m 922 86 l 1007 0 l 836 0 l 922 86 m 96 86 l 182 0 l 10 0 l 96 86 m 492 915 l 403 826 l 203 826 l 114 915 l 492 915 z "},"Ν":{"ha":674,"x_min":0,"x_max":604,"o":"m 492 915 l 403 826 l 201 826 l 113 915 l 492 915 m 103 99 l 103 904 l 192 815 l 192 10 l 103 99 m 515 99 l 515 904 l 604 815 l 604 10 l 515 99 m 89 99 l 0 10 l 0 1008 l 89 919 l 89 99 m 96 86 l 182 0 l 10 0 l 96 86 m 413 10 l 413 815 l 501 904 l 501 99 l 413 10 m 403 1018 l 492 929 l 99 929 l 10 1018 l 403 1018 m 508 86 l 594 0 l 422 0 l 508 86 z "},"Ο":{"ha":674,"x_min":0,"x_max":604,"o":"m 515 919 l 604 1008 l 604 10 l 515 99 l 515 919 m 506 89 l 594 0 l 10 0 l 99 89 l 506 89 m 192 815 l 192 203 l 103 114 l 103 904 l 192 815 m 413 815 l 501 904 l 501 114 l 413 203 l 413 815 m 113 915 l 492 915 l 403 826 l 201 826 l 113 915 m 403 192 l 492 103 l 113 103 l 201 192 l 403 192 m 10 1018 l 594 1018 l 506 929 l 99 929 l 10 1018 m 89 99 l 0 10 l 0 1008 l 89 919 l 89 99 z "},"Ρ":{"ha":675,"x_min":1,"x_max":606,"o":"m 104 99 l 104 492 l 193 403 l 193 10 l 104 99 m 517 919 l 606 1008 l 606 424 l 517 513 l 517 919 m 493 915 l 404 826 l 203 826 l 114 915 l 493 915 m 11 1018 l 596 1018 l 507 929 l 100 929 l 11 1018 m 90 99 l 1 10 l 1 1008 l 90 919 l 90 99 m 503 904 l 503 526 l 414 615 l 414 815 l 503 904 m 193 815 l 193 615 l 104 526 l 104 904 l 193 815 m 97 86 l 183 0 l 11 0 l 97 86 m 507 501 l 596 413 l 203 413 l 114 501 l 507 501 m 404 606 l 493 517 l 114 517 l 203 606 l 404 606 z "},"Τ":{"ha":676,"x_min":1,"x_max":607,"o":"m 88 922 l 1 836 l 1 1008 l 88 922 m 11 1018 l 596 1018 l 507 929 l 100 929 l 11 1018 m 521 922 l 607 1008 l 607 836 l 521 922 m 304 86 l 390 0 l 218 0 l 304 86 m 311 99 l 311 904 l 400 815 l 400 10 l 311 99 m 297 904 l 297 99 l 208 10 l 208 815 l 297 904 m 286 915 l 197 826 l 11 826 l 100 915 l 286 915 m 507 915 l 596 826 l 410 826 l 321 915 l 507 915 z "},"Υ":{"ha":675,"x_min":0,"x_max":606,"o":"m 89 513 l 0 424 l 0 1008 l 89 919 l 89 513 m 10 1018 l 182 1018 l 96 932 l 10 1018 m 303 86 l 389 0 l 217 0 l 303 86 m 296 492 l 296 99 l 207 10 l 207 403 l 296 492 m 310 99 l 310 492 l 399 403 l 399 10 l 310 99 m 506 501 l 594 413 l 408 413 l 319 501 l 506 501 m 285 501 l 196 413 l 10 413 l 99 501 l 285 501 m 192 1008 l 192 615 l 103 526 l 103 919 l 192 1008 m 114 517 l 203 606 l 403 606 l 492 517 l 303 517 l 114 517 m 424 1018 l 594 1018 l 508 932 l 424 1018 m 413 1008 l 501 919 l 501 526 l 413 615 l 413 1008 m 517 919 l 606 1008 l 606 424 l 517 513 l 517 919 z "},"Χ":{"ha":675,"x_min":0,"x_max":606,"o":"m 89 99 l 0 10 l 0 403 l 89 492 l 89 99 m 89 919 l 89 526 l 0 615 l 0 1008 l 89 919 m 96 932 l 10 1018 l 182 1018 l 96 932 m 182 0 l 10 0 l 96 86 l 182 0 m 103 492 l 192 403 l 192 10 l 103 99 l 103 492 m 517 99 l 517 492 l 606 403 l 606 10 l 517 99 m 492 501 l 403 413 l 203 413 l 114 501 l 492 501 m 103 526 l 103 919 l 192 1008 l 192 615 l 103 526 m 501 492 l 501 99 l 413 10 l 413 403 l 501 492 m 424 1018 l 594 1018 l 510 932 l 424 1018 m 501 526 l 413 615 l 413 1008 l 501 919 l 501 526 m 510 86 l 594 0 l 424 0 l 510 86 m 114 517 l 203 606 l 403 606 l 492 517 l 114 517 m 517 919 l 606 1008 l 606 615 l 517 526 l 517 919 z "},"Γ":{"ha":675,"x_min":0,"x_max":606,"o":"m 89 99 l 0 10 l 0 1008 l 89 919 l 89 99 m 11 1018 l 596 1018 l 507 929 l 100 929 l 11 1018 m 97 86 l 182 0 l 11 0 l 97 86 m 104 99 l 104 904 l 193 815 l 193 10 l 104 99 m 507 915 l 596 826 l 203 826 l 114 915 l 507 915 m 519 922 l 606 1008 l 606 836 l 519 922 z "},"Δ":{"ha":675,"x_min":0,"x_max":606,"o":"m 203 826 l 114 915 l 492 915 l 403 826 l 203 826 m 413 815 l 501 904 l 501 114 l 413 203 l 413 815 m 492 103 l 114 103 l 203 192 l 403 192 l 492 103 m 492 929 l 114 929 l 203 1018 l 403 1018 l 492 929 m 517 99 l 517 904 l 606 815 l 606 10 l 517 99 m 192 203 l 103 114 l 103 904 l 192 815 l 192 203 m 594 0 l 10 0 l 99 89 l 506 89 l 594 0 m 89 99 l 0 10 l 0 815 l 89 904 l 89 99 z "},"Θ":{"ha":676,"x_min":1,"x_max":607,"o":"m 11 1018 l 596 1018 l 507 929 l 100 929 l 11 1018 m 90 99 l 1 10 l 1 1008 l 90 919 l 90 99 m 404 192 l 493 103 l 115 103 l 204 192 l 404 192 m 193 815 l 193 615 l 104 526 l 104 904 l 193 815 m 518 919 l 607 1008 l 607 10 l 518 99 l 518 919 m 507 89 l 596 0 l 11 0 l 100 89 l 507 89 m 493 501 l 404 413 l 204 413 l 115 501 l 493 501 m 493 517 l 115 517 l 204 606 l 404 606 l 493 517 m 414 203 l 414 403 l 503 492 l 503 114 l 414 203 m 414 815 l 503 904 l 503 526 l 414 615 l 414 815 m 204 826 l 115 915 l 493 915 l 404 826 l 204 826 m 193 403 l 193 203 l 104 114 l 104 492 l 193 403 z "},"Λ":{"ha":675,"x_min":0,"x_max":606,"o":"m 413 10 l 413 815 l 501 904 l 501 99 l 413 10 m 517 99 l 517 904 l 606 815 l 606 10 l 517 99 m 508 86 l 594 0 l 424 0 l 508 86 m 203 1018 l 403 1018 l 492 929 l 114 929 l 203 1018 m 182 0 l 10 0 l 96 86 l 182 0 m 103 99 l 103 904 l 192 815 l 192 10 l 103 99 m 89 99 l 0 10 l 0 815 l 89 904 l 89 99 m 492 915 l 403 826 l 203 826 l 114 915 l 492 915 z "},"Ξ":{"ha":675,"x_min":0,"x_max":606,"o":"m 594 1018 l 506 929 l 99 929 l 10 1018 l 594 1018 m 96 808 l 182 722 l 10 722 l 96 808 m 103 822 l 103 904 l 192 815 l 192 733 l 103 822 m 89 822 l 0 733 l 0 1008 l 89 919 l 89 822 m 492 915 l 403 826 l 203 826 l 114 915 l 492 915 m 517 919 l 606 1008 l 606 733 l 517 822 l 517 919 m 501 904 l 501 822 l 413 733 l 413 815 l 501 904 m 508 808 l 594 722 l 424 722 l 508 808 m 189 508 l 103 424 l 103 594 l 189 508 m 424 296 l 594 296 l 508 210 l 424 296 m 517 196 l 606 285 l 606 10 l 517 99 l 517 196 m 501 196 l 501 114 l 413 203 l 413 285 l 501 196 m 506 89 l 594 0 l 10 0 l 99 89 l 506 89 m 415 508 l 501 594 l 501 424 l 415 508 m 492 413 l 114 413 l 203 501 l 403 501 l 492 413 m 203 517 l 114 606 l 492 606 l 403 517 l 203 517 m 89 99 l 0 10 l 0 285 l 89 196 l 89 99 m 96 210 l 10 296 l 182 296 l 96 210 m 103 114 l 103 196 l 192 285 l 192 203 l 103 114 m 114 103 l 203 192 l 403 192 l 492 103 l 114 103 z "},"Π":{"ha":675,"x_min":0,"x_max":606,"o":"m 594 1018 l 506 929 l 99 929 l 10 1018 l 594 1018 m 508 86 l 594 0 l 424 0 l 508 86 m 89 99 l 0 10 l 0 1008 l 89 919 l 89 99 m 103 99 l 103 904 l 192 815 l 192 10 l 103 99 m 492 915 l 403 826 l 203 826 l 114 915 l 492 915 m 517 919 l 606 1008 l 606 10 l 517 99 l 517 919 m 96 86 l 182 0 l 10 0 l 96 86 m 501 904 l 501 99 l 413 10 l 413 815 l 501 904 z "},"Σ":{"ha":675,"x_min":0,"x_max":606,"o":"m 10 1018 l 594 1018 l 506 929 l 99 929 l 10 1018 m 519 922 l 606 1008 l 606 836 l 519 922 m 506 915 l 594 826 l 203 826 l 114 915 l 506 915 m 492 501 l 403 413 l 10 413 l 99 501 l 492 501 m 86 96 l 0 10 l 0 182 l 86 96 m 103 526 l 103 904 l 192 815 l 192 615 l 103 526 m 606 10 l 517 99 l 517 506 l 606 594 l 606 10 m 0 1008 l 89 919 l 89 513 l 0 424 l 0 1008 m 114 517 l 203 606 l 594 606 l 506 517 l 114 517 m 99 103 l 10 192 l 403 192 l 492 103 l 99 103 m 413 203 l 413 403 l 501 492 l 501 114 l 413 203 m 506 89 l 594 0 l 10 0 l 99 89 l 506 89 z "},"Φ":{"ha":881,"x_min":0,"x_max":811,"o":"m 399 699 l 399 319 l 310 408 l 310 610 l 399 699 m 713 296 l 801 207 l 513 207 l 424 296 l 713 296 m 501 610 l 501 408 l 413 319 l 413 699 l 501 610 m 406 932 l 319 1018 l 492 1018 l 406 932 m 203 619 l 114 708 l 389 708 l 300 619 l 203 619 m 424 708 l 699 708 l 610 619 l 513 619 l 424 708 m 192 610 l 192 408 l 103 319 l 103 699 l 192 610 m 413 733 l 413 919 l 501 1008 l 501 822 l 413 733 m 399 919 l 399 733 l 310 822 l 310 1008 l 399 919 m 89 306 l 0 217 l 0 801 l 89 713 l 89 306 m 99 722 l 10 811 l 300 811 l 389 722 l 99 722 m 399 285 l 399 99 l 310 10 l 310 196 l 399 285 m 389 296 l 300 207 l 10 207 l 99 296 l 389 296 m 610 399 l 699 310 l 424 310 l 513 399 l 610 399 m 300 399 l 389 310 l 114 310 l 203 399 l 300 399 m 406 86 l 492 0 l 319 0 l 406 86 m 424 722 l 513 811 l 801 811 l 713 722 l 424 722 m 619 610 l 708 699 l 708 319 l 619 408 l 619 610 m 413 99 l 413 285 l 501 196 l 501 10 l 413 99 m 722 713 l 811 801 l 811 217 l 722 306 l 722 713 z "},"Ψ":{"ha":879,"x_min":-1,"x_max":810,"o":"m 628 1018 l 800 1018 l 714 932 l 628 1018 m 113 413 l 201 501 l 299 501 l 388 413 l 113 413 m 618 1008 l 707 919 l 707 424 l 618 513 l 618 1008 m 8 1018 l 181 1018 l 94 932 l 8 1018 m -1 1008 l 88 919 l 88 408 l -1 319 l -1 1008 m 190 1008 l 190 513 l 101 424 l 101 919 l 190 1008 m 711 399 l 800 310 l 511 310 l 422 399 l 711 399 m 388 399 l 299 310 l 8 310 l 97 399 l 388 399 m 397 389 l 397 99 l 308 10 l 308 300 l 397 389 m 411 99 l 411 389 l 500 300 l 500 10 l 411 99 m 411 424 l 411 919 l 500 1008 l 500 513 l 411 424 m 397 919 l 397 424 l 308 513 l 308 1008 l 397 919 m 721 919 l 810 1008 l 810 319 l 721 408 l 721 919 m 404 86 l 490 0 l 318 0 l 404 86 m 422 413 l 511 501 l 608 501 l 697 413 l 422 413 m 404 932 l 318 1018 l 490 1018 l 404 932 z "},"Ω":{"ha":675,"x_min":0,"x_max":606,"o":"m 517 919 l 606 1008 l 606 319 l 517 408 l 517 919 m 403 501 l 492 413 l 114 413 l 203 501 l 403 501 m 192 513 l 103 424 l 103 904 l 192 815 l 192 513 m 114 915 l 492 915 l 403 826 l 203 826 l 114 915 m 10 1018 l 594 1018 l 506 929 l 99 929 l 10 1018 m 89 408 l 0 319 l 0 1008 l 89 919 l 89 408 m 413 815 l 501 904 l 501 424 l 413 513 l 413 815 m 506 399 l 594 310 l 10 310 l 99 399 l 506 399 m 606 10 l 519 96 l 606 182 l 606 10 m 99 89 l 506 89 l 594 0 l 10 0 l 99 89 m 0 182 l 86 96 l 0 10 l 0 182 m 506 103 l 99 103 l 10 192 l 594 192 l 506 103 z "},"Έ":{"ha":675,"x_min":0,"x_max":606,"o":"m 86 1154 l 0 1069 l 0 1240 l 86 1154 m 506 89 l 594 0 l 10 0 l 99 89 l 506 89 m 506 915 l 594 826 l 203 826 l 114 915 l 506 915 m 506 103 l 114 103 l 203 192 l 594 192 l 506 103 m 10 1018 l 594 1018 l 506 929 l 99 929 l 10 1018 m 89 99 l 0 10 l 0 1008 l 89 919 l 89 99 m 103 526 l 103 904 l 192 815 l 192 615 l 103 526 m 192 403 l 192 203 l 103 114 l 103 492 l 192 403 m 114 517 l 203 606 l 594 606 l 506 517 l 114 517 m 519 96 l 606 182 l 606 10 l 519 96 m 519 508 l 606 594 l 606 424 l 519 508 m 519 922 l 606 1008 l 606 836 l 519 922 m 506 501 l 594 413 l 203 413 l 114 501 l 506 501 z "},"Ή":{"ha":675,"x_min":0,"x_max":606,"o":"m 86 1154 l 0 1069 l 0 1240 l 86 1154 m 606 1008 l 606 10 l 517 99 l 517 508 l 517 919 l 606 1008 m 501 99 l 413 10 l 413 403 l 501 492 l 501 99 m 594 1018 l 508 932 l 424 1018 l 594 1018 m 501 526 l 413 615 l 413 1008 l 501 919 l 501 526 m 594 0 l 424 0 l 508 86 l 594 0 m 203 606 l 403 606 l 492 517 l 114 517 l 203 606 m 103 919 l 192 1008 l 192 615 l 103 526 l 103 919 m 10 1018 l 182 1018 l 96 932 l 10 1018 m 103 492 l 192 403 l 192 10 l 103 99 l 103 492 m 0 10 l 0 1008 l 89 919 l 89 99 l 0 10 m 403 413 l 203 413 l 114 501 l 492 501 l 403 413 m 182 0 l 10 0 l 96 86 l 182 0 z "},"Ί":{"ha":263,"x_min":0,"x_max":192,"o":"m 86 1154 l 0 1069 l 0 1240 l 86 1154 m 10 1018 l 182 1018 l 96 932 l 10 1018 m 96 86 l 182 0 l 10 0 l 96 86 m 89 99 l 0 10 l 0 1008 l 89 919 l 89 99 m 103 919 l 192 1008 l 192 10 l 103 99 l 103 919 z "},"Ό":{"ha":674,"x_min":0,"x_max":604,"o":"m 86 1154 l 0 1069 l 0 1240 l 86 1154 m 515 919 l 604 1008 l 604 10 l 515 99 l 515 919 m 506 89 l 594 0 l 10 0 l 99 89 l 506 89 m 192 815 l 192 203 l 103 114 l 103 904 l 192 815 m 413 815 l 501 904 l 501 114 l 413 203 l 413 815 m 113 915 l 492 915 l 403 826 l 201 826 l 113 915 m 403 192 l 492 103 l 113 103 l 201 192 l 403 192 m 10 1018 l 594 1018 l 506 929 l 99 929 l 10 1018 m 89 99 l 0 10 l 0 1008 l 89 919 l 89 99 z "},"Ώ":{"ha":675,"x_min":0,"x_max":606,"o":"m 86 1154 l 0 1069 l 0 1240 l 86 1154 m 517 919 l 606 1008 l 606 319 l 517 408 l 517 919 m 403 501 l 492 413 l 114 413 l 203 501 l 403 501 m 192 513 l 103 424 l 103 904 l 192 815 l 192 513 m 114 915 l 492 915 l 403 826 l 203 826 l 114 915 m 10 1018 l 594 1018 l 506 929 l 99 929 l 10 1018 m 89 408 l 0 319 l 0 1008 l 89 919 l 89 408 m 413 815 l 501 904 l 501 424 l 413 513 l 413 815 m 506 399 l 594 310 l 10 310 l 99 399 l 506 399 m 606 10 l 519 96 l 606 182 l 606 10 m 99 89 l 506 89 l 594 0 l 10 0 l 99 89 m 0 182 l 86 96 l 0 10 l 0 182 m 506 103 l 99 103 l 10 192 l 594 192 l 506 103 z "},"Ύ":{"ha":675,"x_min":0,"x_max":606,"o":"m 86 1154 l 0 1069 l 0 1240 l 86 1154 m 89 513 l 0 424 l 0 1008 l 89 919 l 89 513 m 10 1018 l 182 1018 l 96 932 l 10 1018 m 303 86 l 389 0 l 217 0 l 303 86 m 296 492 l 296 99 l 207 10 l 207 403 l 296 492 m 310 99 l 310 492 l 399 403 l 399 10 l 310 99 m 506 501 l 594 413 l 408 413 l 319 501 l 506 501 m 285 501 l 196 413 l 10 413 l 99 501 l 285 501 m 192 1008 l 192 615 l 103 526 l 103 919 l 192 1008 m 114 517 l 203 606 l 403 606 l 492 517 l 303 517 l 114 517 m 424 1018 l 594 1018 l 508 932 l 424 1018 m 413 1008 l 501 919 l 501 526 l 413 615 l 413 1008 m 517 919 l 606 1008 l 606 424 l 517 513 l 517 919 z "},"a":{"ha":685,"x_min":0,"x_max":615,"o":"m 0 0 l 0 1018 l 615 1018 l 615 0 l 401 0 l 401 401 l 214 401 l 214 0 l 0 0 m 200 24 l 200 406 l 114 492 l 114 110 l 200 24 m 124 515 l 492 515 l 406 603 l 210 603 l 124 515 m 114 526 l 200 613 l 200 807 l 114 894 l 114 526 m 214 617 l 401 617 l 401 803 l 214 803 l 214 617 m 501 110 l 501 492 l 415 406 l 415 24 l 501 110 m 501 526 l 501 894 l 415 807 l 415 613 l 501 526 m 601 24 l 601 994 l 515 908 l 515 110 l 601 24 m 592 1004 l 24 1004 l 110 918 l 506 918 l 592 1004 m 14 994 l 14 24 l 100 110 l 100 908 l 90 918 l 90 918 l 14 994 z "},"ά":{"ha":685,"x_min":0,"x_max":615,"o":"m 0 1018 l 615 1018 l 615 0 l 401 0 l 401 401 l 214 401 l 214 0 l 0 0 l 0 1018 m 200 406 l 114 492 l 114 110 l 200 24 l 200 406 m 492 515 l 406 603 l 210 603 l 124 515 l 492 515 m 200 613 l 200 807 l 114 894 l 114 526 l 200 613 m 401 617 l 401 803 l 214 803 l 214 617 l 401 617 m 501 492 l 415 406 l 415 24 l 501 110 l 501 492 m 501 894 l 415 807 l 415 613 l 501 526 l 501 894 m 601 994 l 515 908 l 515 110 l 601 24 l 601 994 m 24 1004 l 110 918 l 506 918 l 592 1004 l 24 1004 m 14 24 l 100 110 l 100 908 l 90 918 l 14 994 l 14 24 m 4 1056 q 0 1061 0 1056 l 0 1263 q 4 1268 0 1268 q 11 1267 10 1271 l 113 1167 q 113 1157 115 1161 l 11 1057 q 7 1054 8 1054 q 4 1056 4 1054 z "},"b":{"ha":688,"x_min":1,"x_max":618,"o":"m 615 815 q 618 810 618 813 l 618 7 q 611 0 618 0 l 8 0 q 1 7 1 0 l 1 1011 q 8 1018 1 1018 l 410 1018 q 413 1017 411 1018 q 415 1017 414 1017 l 615 815 m 101 908 l 15 994 l 15 24 l 101 110 l 101 908 m 111 918 l 493 918 l 407 1004 l 25 1004 l 111 918 m 493 515 l 407 603 l 213 603 l 125 515 l 493 515 m 215 401 l 215 215 l 403 215 l 403 401 l 215 401 m 201 613 l 201 807 l 115 894 l 115 526 l 201 613 m 403 617 l 403 803 l 215 803 l 215 617 l 403 617 m 115 124 l 201 211 l 201 406 l 115 492 l 115 124 m 493 114 l 407 201 l 213 201 l 125 114 l 493 114 m 503 492 l 417 406 l 417 211 l 503 124 l 503 492 m 503 894 l 417 807 l 417 613 l 503 526 l 503 894 m 604 807 l 517 894 l 517 110 l 604 24 l 604 807 z "},"c":{"ha":688,"x_min":1,"x_max":618,"o":"m 611 1018 q 618 1011 618 1018 l 618 810 q 611 803 618 803 l 215 803 l 215 215 l 611 215 q 618 208 618 215 l 618 7 q 611 0 618 0 l 8 0 q 1 7 1 0 l 1 1011 q 8 1018 1 1018 l 611 1018 m 101 908 l 15 994 l 15 24 l 101 110 l 101 908 m 604 190 l 519 107 l 604 24 l 604 190 m 213 201 l 125 114 l 507 114 l 593 201 l 213 201 m 201 211 l 201 807 l 115 894 l 115 124 l 201 211 m 507 918 l 593 1004 l 25 1004 l 111 918 l 507 918 m 604 994 l 519 911 l 604 826 l 604 994 z "},"d":{"ha":686,"x_min":0,"x_max":617,"o":"m 614 815 q 617 810 617 813 l 617 7 q 610 0 617 0 l 7 0 q 0 7 0 0 l 0 1011 q 7 1018 0 1018 l 408 1018 q 411 1017 410 1018 q 414 1017 413 1017 l 614 815 m 100 908 l 14 994 l 14 24 l 100 110 l 100 908 m 110 918 l 492 918 l 406 1004 l 24 1004 l 110 918 m 214 803 l 214 215 l 401 215 l 401 803 l 214 803 m 114 124 l 200 211 l 200 807 l 114 894 l 114 124 m 492 114 l 406 201 l 211 201 l 124 114 l 492 114 m 501 894 l 415 807 l 415 211 l 501 124 l 501 894 m 603 807 l 515 894 l 515 110 l 603 24 l 603 807 z "},"e":{"ha":686,"x_min":0,"x_max":617,"o":"m 608 1018 q 617 1011 617 1018 l 617 810 q 608 803 617 803 l 214 803 l 214 617 l 608 617 q 617 610 617 617 l 617 408 q 608 401 617 401 l 214 401 l 214 215 l 608 215 q 617 208 617 215 l 617 7 q 608 0 617 0 l 7 0 q 0 7 0 0 l 0 1011 q 7 1018 0 1018 l 608 1018 m 100 908 l 14 994 l 14 24 l 100 110 l 100 908 m 601 190 l 518 107 l 601 24 l 601 190 m 210 201 l 124 114 l 506 114 l 592 201 l 210 201 m 200 211 l 200 406 l 114 492 l 114 124 l 200 211 m 601 593 l 518 508 l 601 425 l 601 593 m 210 603 l 124 515 l 506 515 l 592 603 l 210 603 m 200 613 l 200 807 l 114 894 l 114 526 l 200 613 m 506 918 l 592 1004 l 24 1004 l 110 918 l 506 918 m 601 994 l 518 911 l 601 826 l 601 994 z "},"f":{"ha":686,"x_min":0,"x_max":617,"o":"m 610 1018 q 617 1011 617 1018 l 617 810 q 610 803 617 803 l 214 803 l 214 617 l 610 617 q 617 610 617 617 l 617 408 q 610 401 617 401 l 214 401 l 214 7 q 207 0 214 0 l 7 0 q 0 7 0 0 l 0 1011 q 7 1018 0 1018 l 610 1018 m 100 908 l 14 994 l 14 24 l 100 110 l 100 908 m 200 406 l 114 492 l 114 110 l 200 24 l 200 406 m 603 593 l 518 508 l 603 425 l 603 593 m 210 603 l 124 515 l 506 515 l 592 603 l 210 603 m 200 613 l 200 807 l 114 894 l 114 526 l 200 613 m 506 918 l 592 1004 l 24 1004 l 110 918 l 506 918 m 603 994 l 518 911 l 603 826 l 603 994 z "},"g":{"ha":686,"x_min":0,"x_max":617,"o":"m 610 1018 q 617 1011 617 1018 l 617 810 q 610 803 617 803 l 214 803 l 214 215 l 401 215 l 401 401 l 308 401 q 301 408 301 401 l 301 610 q 308 617 301 617 l 610 617 q 617 610 617 617 l 617 7 q 610 0 617 0 l 7 0 q 0 7 0 0 l 0 1011 q 7 1018 0 1018 l 610 1018 m 100 908 l 14 994 l 14 24 l 100 110 l 100 908 m 501 492 l 415 406 l 415 211 l 501 124 l 501 492 m 603 593 l 515 506 l 515 110 l 603 24 l 603 593 m 399 508 l 315 593 l 315 425 l 399 508 m 411 515 l 506 515 l 592 603 l 325 603 l 411 515 m 211 201 l 124 114 l 492 114 l 406 201 l 211 201 m 200 211 l 200 807 l 114 894 l 114 124 l 200 211 m 506 918 l 592 1004 l 24 1004 l 110 918 l 506 918 m 603 994 l 518 911 l 603 826 l 603 994 z "},"h":{"ha":686,"x_min":0,"x_max":617,"o":"m 610 1018 q 617 1011 617 1018 l 617 7 q 610 0 617 0 l 408 0 q 401 7 401 0 l 401 401 l 214 401 l 214 7 q 207 0 214 0 l 7 0 q 0 7 0 0 l 0 1011 q 7 1018 0 1018 l 207 1018 q 214 1011 214 1018 l 214 617 l 401 617 l 401 1011 q 408 1018 401 1018 l 610 1018 m 100 908 l 14 994 l 14 24 l 100 110 l 100 908 m 107 921 l 190 1004 l 24 1004 l 107 921 m 114 908 l 114 526 l 200 613 l 200 994 l 114 908 m 200 406 l 114 492 l 114 110 l 200 24 l 200 406 m 492 515 l 406 603 l 210 603 l 124 515 l 492 515 m 501 492 l 415 406 l 415 24 l 501 110 l 501 492 m 501 908 l 415 994 l 415 613 l 501 526 l 501 908 m 508 921 l 592 1004 l 425 1004 l 508 921 m 603 994 l 515 908 l 515 110 l 603 24 l 603 994 z "},"i":{"ha":285,"x_min":0,"x_max":215,"o":"m 208 1018 q 215 1011 215 1018 l 215 7 q 208 0 215 0 l 7 0 q 0 7 0 0 l 0 1011 q 7 1018 0 1018 l 208 1018 m 101 908 l 14 994 l 14 24 l 101 110 l 101 908 m 108 921 l 192 1004 l 25 1004 l 108 921 m 201 994 l 115 908 l 115 110 l 201 24 l 201 994 z "},"j":{"ha":685,"x_min":-1,"x_max":615,"o":"m 608 1018 q 615 1011 615 1018 l 615 7 q 608 0 615 0 l 6 0 q -1 7 -1 0 l -1 610 q 6 617 -1 617 l 206 617 q 213 610 213 617 l 213 215 l 400 215 l 400 1011 q 407 1018 400 1018 l 608 1018 m 99 506 l 13 593 l 13 24 l 99 110 l 99 506 m 106 519 l 189 603 l 22 603 l 106 519 m 113 124 l 199 211 l 199 593 l 113 506 l 113 124 m 490 114 l 404 201 l 210 201 l 122 114 l 490 114 m 500 908 l 414 994 l 414 211 l 500 124 l 500 908 m 507 921 l 590 1004 l 424 1004 l 507 921 m 601 994 l 514 908 l 514 110 l 601 24 l 601 994 z "},"k":{"ha":688,"x_min":1,"x_max":618,"o":"m 611 1018 q 618 1011 618 1018 l 618 610 q 615 604 618 607 l 428 415 l 611 415 q 618 408 618 415 l 618 7 q 611 0 618 0 l 410 0 q 403 7 403 0 l 403 401 l 217 401 l 217 7 q 213 1 217 1 q 210 0 211 0 l 8 0 q 6 1 8 0 q 1 7 1 1 l 1 1011 q 6 1018 1 1015 l 8 1018 l 210 1018 q 215 1014 215 1018 q 217 1011 217 1013 l 217 617 l 403 617 l 403 1011 q 410 1018 403 1018 l 611 1018 m 103 908 l 15 994 l 15 24 l 103 111 l 103 908 m 110 921 l 193 1004 l 25 1004 l 110 921 m 117 908 l 117 526 l 203 613 l 203 994 l 117 908 m 203 406 l 117 492 l 117 111 l 203 24 l 203 406 m 504 306 l 417 392 l 417 24 l 504 111 l 504 306 m 604 392 l 518 306 l 518 111 l 604 24 l 604 392 m 428 401 l 511 318 l 594 401 l 428 401 m 494 517 l 407 603 l 213 603 l 126 517 l 494 517 m 504 908 l 417 994 l 417 613 l 504 526 l 504 908 m 511 921 l 594 1004 l 428 1004 l 511 921 m 604 994 l 518 908 l 518 526 l 604 613 l 604 994 z "},"l":{"ha":686,"x_min":0,"x_max":617,"o":"m 610 215 q 617 208 617 215 l 617 7 q 610 0 617 0 l 7 0 q 0 7 0 0 l 0 1011 q 7 1018 0 1018 l 207 1018 q 214 1011 214 1018 l 214 215 l 610 215 m 100 908 l 14 994 l 14 24 l 100 111 l 100 908 m 107 921 l 190 1004 l 24 1004 l 107 921 m 114 125 l 200 211 l 200 994 l 114 908 l 114 125 m 506 114 l 592 201 l 211 201 l 124 114 l 506 114 m 603 192 l 518 107 l 603 24 l 603 192 z "},"m":{"ha":1089,"x_min":1,"x_max":1019,"o":"m 1013 1018 q 1019 1011 1019 1018 l 1019 7 q 1013 0 1019 0 l 813 0 q 806 7 806 0 l 806 803 l 618 803 l 618 7 q 611 0 618 0 l 410 0 q 403 7 403 0 l 403 803 l 217 803 l 217 7 q 210 0 217 0 l 8 0 q 1 7 1 0 l 1 1011 q 8 1018 1 1018 l 1013 1018 m 103 908 l 15 994 l 15 24 l 103 111 l 103 908 m 203 807 l 117 894 l 117 111 l 203 24 l 203 807 m 504 894 l 417 807 l 417 24 l 504 111 l 504 894 m 604 807 l 518 894 l 518 111 l 604 24 l 604 807 m 906 894 l 819 807 l 819 24 l 906 111 l 906 894 m 910 918 l 996 1004 l 25 1004 l 113 918 l 910 918 m 1006 994 l 919 908 l 919 111 l 1006 24 l 1006 994 z "},"n":{"ha":688,"x_min":1,"x_max":618,"o":"m 611 810 l 618 810 l 618 7 q 611 0 618 0 l 410 0 q 403 7 403 0 l 403 803 l 217 803 l 217 7 q 210 0 217 0 l 8 0 q 1 7 1 0 l 1 1011 q 8 1018 1 1018 l 410 1018 q 415 1015 413 1018 l 515 915 l 617 815 l 611 810 m 103 908 l 15 994 l 15 24 l 103 111 l 103 908 m 203 807 l 117 894 l 117 111 l 203 24 l 203 807 m 494 918 l 407 1004 l 26 1004 l 113 918 l 494 918 m 504 894 l 418 807 l 418 24 l 504 111 l 504 894 m 604 807 l 518 894 l 518 111 l 604 24 l 604 807 z "},"o":{"ha":688,"x_min":1,"x_max":618,"o":"m 611 1018 q 618 1011 618 1018 l 618 7 q 611 0 618 0 l 8 0 q 1 7 1 0 l 1 1011 q 8 1018 1 1018 l 611 1018 m 103 908 l 15 994 l 15 24 l 103 111 l 103 908 m 494 114 l 407 201 l 213 201 l 126 114 l 494 114 m 203 211 l 203 807 l 117 894 l 117 125 l 203 211 m 403 215 l 403 803 l 217 803 l 217 215 l 403 215 m 504 894 l 418 807 l 418 211 l 504 125 l 504 894 m 508 918 l 594 1004 l 26 1004 l 113 918 l 508 918 m 604 994 l 518 908 l 518 111 l 604 24 l 604 994 z "},"p":{"ha":688,"x_min":1,"x_max":618,"o":"m 611 1018 q 618 1011 618 1018 l 618 408 q 611 401 618 401 l 217 401 l 217 7 q 210 0 217 0 l 8 0 q 1 7 1 0 l 1 1011 q 8 1018 1 1018 l 611 1018 m 103 908 l 15 994 l 15 24 l 103 111 l 103 908 m 203 406 l 117 492 l 117 111 l 203 24 l 203 406 m 494 517 l 407 603 l 213 603 l 126 517 l 494 517 m 203 613 l 203 807 l 117 894 l 117 526 l 203 613 m 403 617 l 403 803 l 217 803 l 217 617 l 403 617 m 504 894 l 418 807 l 418 613 l 504 526 l 504 894 m 508 918 l 594 1004 l 26 1004 l 113 918 l 508 918 m 604 994 l 518 908 l 518 513 l 604 425 l 604 994 z "},"q":{"ha":686,"x_min":0,"x_max":617,"o":"m 610 1018 q 617 1011 617 1018 l 617 7 l 617 4 q 610 0 614 0 l 417 0 l 417 -93 q 408 -100 417 -100 l 208 -100 q 201 -93 201 -100 l 201 0 l 7 0 q 1 4 3 0 q 0 7 1 6 l 0 1011 q 7 1018 0 1018 l 610 1018 m 101 908 l 14 994 l 14 24 l 101 111 l 101 908 m 301 90 l 215 4 l 215 -76 l 301 10 l 301 90 m 401 4 l 315 90 l 315 10 l 401 -76 l 401 4 m 493 114 l 406 201 l 211 201 l 125 114 l 493 114 m 201 211 l 201 807 l 115 894 l 115 125 l 201 211 m 401 215 l 401 803 l 215 803 l 215 215 l 401 215 m 503 894 l 417 807 l 417 211 l 503 125 l 503 894 m 507 918 l 593 1004 l 25 1004 l 111 918 l 507 918 m 603 994 l 517 908 l 517 111 l 603 24 l 603 994 z "},"r":{"ha":686,"x_min":0,"x_max":617,"o":"m 610 1018 q 617 1011 617 1018 l 617 610 q 615 604 617 606 l 519 510 l 615 414 q 617 408 617 413 l 617 7 q 610 0 617 0 l 408 0 q 401 7 401 0 l 401 401 l 215 401 l 215 7 q 208 0 215 0 l 7 0 q 0 7 0 0 l 0 1011 q 7 1018 0 1018 l 610 1018 m 101 908 l 14 994 l 14 24 l 101 111 l 101 510 l 101 908 m 201 406 l 115 492 l 115 111 l 201 24 l 201 406 m 493 517 l 479 529 l 406 603 l 211 603 l 125 517 l 493 517 m 201 613 l 201 807 l 115 894 l 115 526 l 201 613 m 401 617 l 401 803 l 215 803 l 215 617 l 401 617 m 503 492 l 417 406 l 417 24 l 503 111 l 503 492 m 503 894 l 417 807 l 417 613 l 489 539 l 503 526 l 503 894 m 507 918 l 529 940 l 593 1004 l 25 1004 l 111 918 l 308 918 l 507 918 m 517 492 l 517 111 l 603 24 l 603 406 l 517 492 m 603 994 l 539 931 l 517 908 l 517 526 l 603 613 l 603 994 z "},"s":{"ha":686,"x_min":0,"x_max":617,"o":"m 610 1018 q 617 1011 617 1018 l 617 710 q 610 703 617 703 l 408 703 q 401 710 401 703 l 401 803 l 215 803 l 215 617 l 610 617 q 617 610 617 617 l 617 7 q 610 0 617 0 l 7 0 q 0 7 0 0 l 0 308 q 7 315 0 315 l 208 315 q 215 308 215 315 l 215 215 l 401 215 l 401 401 l 7 401 q 0 408 0 401 l 0 1011 q 7 1018 0 1018 l 610 1018 m 101 908 l 14 994 l 14 425 l 101 513 l 101 908 m 101 206 l 14 292 l 14 24 l 101 111 l 101 206 m 108 218 l 192 301 l 25 301 l 108 218 m 115 125 l 201 211 l 201 292 l 115 206 l 115 125 m 493 114 l 406 201 l 211 201 l 125 114 l 493 114 m 503 492 l 417 406 l 417 211 l 503 125 l 503 492 m 603 593 l 517 506 l 517 111 l 603 24 l 603 593 m 211 603 l 125 517 l 507 517 l 593 603 l 211 603 m 201 613 l 201 807 l 115 894 l 115 526 l 201 613 m 503 894 l 417 807 l 417 726 l 503 813 l 503 894 m 507 918 l 593 1004 l 25 1004 l 111 918 l 507 918 m 603 994 l 517 908 l 517 813 l 603 726 l 603 994 z "},"t":{"ha":686,"x_min":0,"x_max":617,"o":"m 610 1018 q 617 1011 617 1018 l 617 810 q 610 803 617 803 l 415 803 l 415 7 q 408 0 415 0 l 208 0 q 201 7 201 0 l 201 803 l 7 803 q 0 810 0 803 l 0 1011 q 7 1018 0 1018 l 610 1018 m 97 911 l 14 994 l 14 826 l 97 911 m 301 894 l 215 807 l 215 24 l 301 110 l 301 894 m 401 807 l 315 894 l 315 110 l 401 24 l 401 807 m 507 918 l 593 1004 l 24 1004 l 111 918 l 507 918 m 603 994 l 519 911 l 603 826 l 603 994 z "},"u":{"ha":686,"x_min":0,"x_max":617,"o":"m 610 1018 q 617 1011 617 1018 l 617 7 q 610 0 617 0 l 7 0 q 0 7 0 0 l 0 1011 q 7 1018 0 1018 l 208 1018 q 215 1011 215 1018 l 215 215 l 401 215 l 401 1011 q 408 1018 401 1018 l 610 1018 m 100 908 l 14 994 l 14 24 l 100 110 l 100 908 m 107 921 l 190 1004 l 24 1004 l 107 921 m 114 124 l 201 211 l 201 994 l 114 908 l 114 124 m 492 114 l 406 201 l 211 201 l 124 114 l 492 114 m 501 908 l 415 994 l 415 211 l 501 124 l 501 908 m 508 921 l 593 1004 l 425 1004 l 508 921 m 603 994 l 515 908 l 515 110 l 603 24 l 603 994 z "},"v":{"ha":686,"x_min":0,"x_max":617,"o":"m 610 1018 q 617 1011 617 1018 l 617 208 q 614 203 617 206 l 414 1 q 408 0 413 0 l 208 0 l 208 7 l 203 1 l 103 103 l 1 203 l 7 208 l 0 208 l 0 1011 q 7 1018 0 1018 l 208 1018 q 215 1011 215 1018 l 215 215 l 401 215 l 401 1011 q 408 1018 401 1018 l 610 1018 m 100 908 l 14 994 l 14 211 l 100 124 l 100 908 m 107 921 l 190 1004 l 24 1004 l 107 921 m 114 124 l 201 211 l 201 994 l 114 908 l 114 124 m 492 114 l 406 201 l 211 201 l 124 114 l 492 114 m 501 908 l 415 994 l 415 211 l 501 124 l 501 908 m 508 921 l 593 1004 l 425 1004 l 508 921 m 603 994 l 515 908 l 515 124 l 603 211 l 603 994 z "},"w":{"ha":1086,"x_min":-1,"x_max":1017,"o":"m 1010 1018 q 1017 1011 1017 1018 l 1017 7 q 1010 0 1017 0 l 6 0 q -1 7 -1 0 l -1 1011 q 6 1018 -1 1018 l 206 1018 q 213 1011 213 1018 l 213 215 l 400 215 l 400 1011 q 407 1018 400 1018 l 608 1018 q 615 1011 615 1018 l 615 215 l 801 215 l 801 1011 q 808 1018 801 1018 l 1010 1018 m 99 908 l 13 994 l 13 24 l 99 110 l 99 908 m 106 921 l 189 1004 l 22 1004 l 106 921 m 113 124 l 199 211 l 199 994 l 113 908 l 113 124 m 490 114 l 404 201 l 210 201 l 122 114 l 490 114 m 500 908 l 414 994 l 414 211 l 500 124 l 500 908 m 507 921 l 592 1004 l 424 1004 l 507 921 m 514 124 l 601 211 l 601 994 l 514 908 l 514 124 m 892 114 l 806 201 l 611 201 l 524 114 l 892 114 m 901 908 l 815 994 l 815 211 l 901 124 l 901 908 m 910 921 l 993 1004 l 825 1004 l 910 921 m 1003 994 l 917 908 l 917 110 l 1003 24 l 1003 994 z "},"x":{"ha":686,"x_min":0,"x_max":617,"o":"m 610 1018 q 617 1011 617 1018 l 617 610 q 614 604 617 607 l 519 508 l 614 414 l 610 408 l 617 408 l 617 7 q 610 0 617 0 l 408 0 q 401 7 401 0 l 401 401 l 215 401 l 215 7 q 208 0 215 0 l 7 0 q 0 7 0 0 l 0 408 q 3 414 0 411 l 97 508 l 3 604 l 7 610 l 0 610 l 0 1011 q 7 1018 0 1018 l 208 1018 q 215 1011 215 1018 l 215 617 l 401 617 l 401 1011 q 408 1018 401 1018 l 610 1018 m 100 492 l 14 406 l 14 24 l 100 110 l 100 492 m 100 908 l 14 994 l 14 613 l 100 526 l 100 908 m 107 921 l 192 1004 l 24 1004 l 107 921 m 114 908 l 114 526 l 201 613 l 201 994 l 114 908 m 201 406 l 114 492 l 114 110 l 201 24 l 201 406 m 492 515 l 406 603 l 211 603 l 125 515 l 492 515 m 503 492 l 415 406 l 415 24 l 503 110 l 503 492 m 503 908 l 415 994 l 415 613 l 503 526 l 503 908 m 510 921 l 593 1004 l 425 1004 l 510 921 m 517 492 l 517 110 l 603 24 l 603 406 l 517 492 m 603 994 l 517 908 l 517 526 l 603 613 l 603 994 z "},"y":{"ha":685,"x_min":-1,"x_max":615,"o":"m 608 1018 q 615 1011 615 1018 l 615 408 q 608 401 615 401 l 415 401 l 415 7 q 408 0 415 0 l 207 0 q 200 7 200 0 l 200 401 l 6 401 q -1 408 -1 401 l -1 1011 q 6 1018 -1 1018 l 207 1018 q 214 1011 214 1018 l 214 617 l 401 617 l 401 1011 q 408 1018 401 1018 l 608 1018 m 100 908 l 14 994 l 14 425 l 100 513 l 100 908 m 107 921 l 190 1004 l 24 1004 l 107 921 m 114 526 l 200 613 l 200 994 l 114 908 l 114 526 m 300 492 l 214 406 l 214 24 l 300 110 l 300 492 m 401 406 l 314 492 l 314 110 l 401 24 l 401 406 m 492 515 l 406 603 l 210 603 l 124 515 l 307 515 l 492 515 m 501 908 l 415 994 l 415 613 l 501 526 l 501 908 m 508 921 l 592 1004 l 425 1004 l 508 921 m 601 994 l 515 908 l 515 513 l 601 425 l 601 994 z "},"z":{"ha":686,"x_min":0,"x_max":617,"o":"m 610 1018 q 617 1011 617 1018 l 617 408 q 610 401 617 401 l 215 401 l 215 215 l 610 215 q 617 208 617 215 l 617 7 q 610 0 617 0 l 7 0 q 0 7 0 0 l 0 610 q 7 617 0 617 l 401 617 l 401 803 l 7 803 q 0 810 0 803 l 0 1011 q 7 1018 0 1018 l 610 1018 m 97 911 l 14 994 l 14 826 l 97 911 m 100 506 l 14 593 l 14 24 l 100 110 l 100 506 m 603 190 l 519 107 l 603 24 l 603 190 m 211 201 l 124 114 l 506 114 l 593 201 l 211 201 m 201 211 l 201 406 l 114 492 l 114 124 l 201 211 m 492 515 l 406 603 l 24 603 l 110 515 l 492 515 m 501 894 l 415 807 l 415 613 l 501 526 l 501 894 m 506 918 l 593 1004 l 24 1004 l 110 918 l 506 918 m 603 994 l 515 908 l 515 513 l 603 425 l 603 994 z "},"α":{"ha":685,"x_min":0,"x_max":615,"o":"m 0 0 l 0 1018 l 615 1018 l 615 0 l 401 0 l 401 401 l 214 401 l 214 0 l 0 0 m 200 24 l 200 406 l 114 492 l 114 110 l 200 24 m 124 515 l 492 515 l 406 603 l 210 603 l 124 515 m 114 526 l 200 613 l 200 807 l 114 894 l 114 526 m 214 617 l 401 617 l 401 803 l 214 803 l 214 617 m 501 110 l 501 492 l 415 406 l 415 24 l 501 110 m 501 526 l 501 894 l 415 807 l 415 613 l 501 526 m 601 24 l 601 994 l 515 908 l 515 110 l 601 24 m 592 1004 l 24 1004 l 110 918 l 506 918 l 592 1004 m 14 994 l 14 24 l 100 110 l 100 908 l 90 918 l 90 918 l 14 994 z "},"β":{"ha":688,"x_min":1,"x_max":618,"o":"m 615 815 q 618 810 618 813 l 618 7 q 611 0 618 0 l 8 0 q 1 7 1 0 l 1 1011 q 8 1018 1 1018 l 410 1018 q 413 1017 411 1018 q 415 1017 414 1017 l 615 815 m 101 908 l 15 994 l 15 24 l 101 110 l 101 908 m 111 918 l 493 918 l 407 1004 l 25 1004 l 111 918 m 493 515 l 407 603 l 213 603 l 125 515 l 493 515 m 215 401 l 215 215 l 403 215 l 403 401 l 215 401 m 201 613 l 201 807 l 115 894 l 115 526 l 201 613 m 403 617 l 403 803 l 215 803 l 215 617 l 403 617 m 115 124 l 201 211 l 201 406 l 115 492 l 115 124 m 493 114 l 407 201 l 213 201 l 125 114 l 493 114 m 503 492 l 417 406 l 417 211 l 503 124 l 503 492 m 503 894 l 417 807 l 417 613 l 503 526 l 503 894 m 604 807 l 517 894 l 517 110 l 604 24 l 604 807 z "},"ε":{"ha":686,"x_min":0,"x_max":617,"o":"m 608 1018 q 617 1011 617 1018 l 617 810 q 608 803 617 803 l 214 803 l 214 617 l 608 617 q 617 610 617 617 l 617 408 q 608 401 617 401 l 214 401 l 214 215 l 608 215 q 617 208 617 215 l 617 7 q 608 0 617 0 l 7 0 q 0 7 0 0 l 0 1011 q 7 1018 0 1018 l 608 1018 m 100 908 l 14 994 l 14 24 l 100 110 l 100 908 m 601 190 l 518 107 l 601 24 l 601 190 m 210 201 l 124 114 l 506 114 l 592 201 l 210 201 m 200 211 l 200 406 l 114 492 l 114 124 l 200 211 m 601 593 l 518 508 l 601 425 l 601 593 m 210 603 l 124 515 l 506 515 l 592 603 l 210 603 m 200 613 l 200 807 l 114 894 l 114 526 l 200 613 m 506 918 l 592 1004 l 24 1004 l 110 918 l 506 918 m 601 994 l 518 911 l 601 826 l 601 994 z "},"ζ":{"ha":686,"x_min":0,"x_max":617,"o":"m 610 1018 q 617 1011 617 1018 l 617 408 q 610 401 617 401 l 215 401 l 215 215 l 610 215 q 617 208 617 215 l 617 7 q 610 0 617 0 l 7 0 q 0 7 0 0 l 0 610 q 7 617 0 617 l 401 617 l 401 803 l 7 803 q 0 810 0 803 l 0 1011 q 7 1018 0 1018 l 610 1018 m 97 911 l 14 994 l 14 826 l 97 911 m 100 506 l 14 593 l 14 24 l 100 110 l 100 506 m 603 190 l 519 107 l 603 24 l 603 190 m 211 201 l 124 114 l 506 114 l 593 201 l 211 201 m 201 211 l 201 406 l 114 492 l 114 124 l 201 211 m 492 515 l 406 603 l 24 603 l 110 515 l 492 515 m 501 894 l 415 807 l 415 613 l 501 526 l 501 894 m 506 918 l 593 1004 l 24 1004 l 110 918 l 506 918 m 603 994 l 515 908 l 515 513 l 603 425 l 603 994 z "},"η":{"ha":686,"x_min":0,"x_max":617,"o":"m 610 1018 q 617 1011 617 1018 l 617 7 q 610 0 617 0 l 408 0 q 401 7 401 0 l 401 401 l 214 401 l 214 7 q 207 0 214 0 l 7 0 q 0 7 0 0 l 0 1011 q 7 1018 0 1018 l 207 1018 q 214 1011 214 1018 l 214 617 l 401 617 l 401 1011 q 408 1018 401 1018 l 610 1018 m 100 908 l 14 994 l 14 24 l 100 110 l 100 908 m 107 921 l 190 1004 l 24 1004 l 107 921 m 114 908 l 114 526 l 200 613 l 200 994 l 114 908 m 200 406 l 114 492 l 114 110 l 200 24 l 200 406 m 492 515 l 406 603 l 210 603 l 124 515 l 492 515 m 501 492 l 415 406 l 415 24 l 501 110 l 501 492 m 501 908 l 415 994 l 415 613 l 501 526 l 501 908 m 508 921 l 592 1004 l 425 1004 l 508 921 m 603 994 l 515 908 l 515 110 l 603 24 l 603 994 z "},"ι":{"ha":285,"x_min":0,"x_max":215,"o":"m 208 1018 q 215 1011 215 1018 l 215 7 q 208 0 215 0 l 7 0 q 0 7 0 0 l 0 1011 q 7 1018 0 1018 l 208 1018 m 101 908 l 14 994 l 14 24 l 101 110 l 101 908 m 108 921 l 192 1004 l 25 1004 l 108 921 m 201 994 l 115 908 l 115 110 l 201 24 l 201 994 z "},"κ":{"ha":688,"x_min":1,"x_max":618,"o":"m 611 1018 q 618 1011 618 1018 l 618 610 q 615 604 618 607 l 428 415 l 611 415 q 618 408 618 415 l 618 7 q 611 0 618 0 l 410 0 q 403 7 403 0 l 403 401 l 217 401 l 217 7 q 213 1 217 1 q 210 0 211 0 l 8 0 q 6 1 8 0 q 1 7 1 1 l 1 1011 q 6 1018 1 1015 l 8 1018 l 210 1018 q 215 1014 215 1018 q 217 1011 217 1013 l 217 617 l 403 617 l 403 1011 q 410 1018 403 1018 l 611 1018 m 103 908 l 15 994 l 15 24 l 103 111 l 103 908 m 110 921 l 193 1004 l 25 1004 l 110 921 m 117 908 l 117 526 l 203 613 l 203 994 l 117 908 m 203 406 l 117 492 l 117 111 l 203 24 l 203 406 m 504 306 l 417 392 l 417 24 l 504 111 l 504 306 m 604 392 l 518 306 l 518 111 l 604 24 l 604 392 m 428 401 l 511 318 l 594 401 l 428 401 m 494 517 l 407 603 l 213 603 l 126 517 l 494 517 m 504 908 l 417 994 l 417 613 l 504 526 l 504 908 m 511 921 l 594 1004 l 428 1004 l 511 921 m 604 994 l 518 908 l 518 526 l 604 613 l 604 994 z "},"μ":{"ha":1089,"x_min":1,"x_max":1019,"o":"m 1013 1018 q 1019 1011 1019 1018 l 1019 7 q 1013 0 1019 0 l 813 0 q 806 7 806 0 l 806 803 l 618 803 l 618 7 q 611 0 618 0 l 410 0 q 403 7 403 0 l 403 803 l 217 803 l 217 7 q 210 0 217 0 l 8 0 q 1 7 1 0 l 1 1011 q 8 1018 1 1018 l 1013 1018 m 103 908 l 15 994 l 15 24 l 103 111 l 103 908 m 203 807 l 117 894 l 117 111 l 203 24 l 203 807 m 504 894 l 417 807 l 417 24 l 504 111 l 504 894 m 604 807 l 518 894 l 518 111 l 604 24 l 604 807 m 906 894 l 819 807 l 819 24 l 906 111 l 906 894 m 910 918 l 996 1004 l 25 1004 l 113 918 l 910 918 m 1006 994 l 919 908 l 919 111 l 1006 24 l 1006 994 z "},"ν":{"ha":688,"x_min":1,"x_max":618,"o":"m 611 810 l 618 810 l 618 7 q 611 0 618 0 l 410 0 q 403 7 403 0 l 403 803 l 217 803 l 217 7 q 210 0 217 0 l 8 0 q 1 7 1 0 l 1 1011 q 8 1018 1 1018 l 410 1018 q 415 1015 413 1018 l 515 915 l 617 815 l 611 810 m 103 908 l 15 994 l 15 24 l 103 111 l 103 908 m 203 807 l 117 894 l 117 111 l 203 24 l 203 807 m 494 918 l 407 1004 l 26 1004 l 113 918 l 494 918 m 504 894 l 418 807 l 418 24 l 504 111 l 504 894 m 604 807 l 518 894 l 518 111 l 604 24 l 604 807 z "},"ο":{"ha":688,"x_min":1,"x_max":618,"o":"m 611 1018 q 618 1011 618 1018 l 618 7 q 611 0 618 0 l 8 0 q 1 7 1 0 l 1 1011 q 8 1018 1 1018 l 611 1018 m 103 908 l 15 994 l 15 24 l 103 111 l 103 908 m 494 114 l 407 201 l 213 201 l 126 114 l 494 114 m 203 211 l 203 807 l 117 894 l 117 125 l 203 211 m 403 215 l 403 803 l 217 803 l 217 215 l 403 215 m 504 894 l 418 807 l 418 211 l 504 125 l 504 894 m 508 918 l 594 1004 l 26 1004 l 113 918 l 508 918 m 604 994 l 518 908 l 518 111 l 604 24 l 604 994 z "},"ρ":{"ha":688,"x_min":1,"x_max":618,"o":"m 611 1018 q 618 1011 618 1018 l 618 408 q 611 401 618 401 l 217 401 l 217 7 q 210 0 217 0 l 8 0 q 1 7 1 0 l 1 1011 q 8 1018 1 1018 l 611 1018 m 103 908 l 15 994 l 15 24 l 103 111 l 103 908 m 203 406 l 117 492 l 117 111 l 203 24 l 203 406 m 494 517 l 407 603 l 213 603 l 126 517 l 494 517 m 203 613 l 203 807 l 117 894 l 117 526 l 203 613 m 403 617 l 403 803 l 217 803 l 217 617 l 403 617 m 504 894 l 418 807 l 418 613 l 504 526 l 504 894 m 508 918 l 594 1004 l 26 1004 l 113 918 l 508 918 m 604 994 l 518 908 l 518 513 l 604 425 l 604 994 z "},"τ":{"ha":686,"x_min":0,"x_max":617,"o":"m 610 1018 q 617 1011 617 1018 l 617 810 q 610 803 617 803 l 415 803 l 415 7 q 408 0 415 0 l 208 0 q 201 7 201 0 l 201 803 l 7 803 q 0 810 0 803 l 0 1011 q 7 1018 0 1018 l 610 1018 m 97 911 l 14 994 l 14 826 l 97 911 m 301 894 l 215 807 l 215 24 l 301 110 l 301 894 m 401 807 l 315 894 l 315 110 l 401 24 l 401 807 m 507 918 l 593 1004 l 24 1004 l 111 918 l 507 918 m 603 994 l 519 911 l 603 826 l 603 994 z "},"υ":{"ha":685,"x_min":-1,"x_max":615,"o":"m 608 1018 q 615 1011 615 1018 l 615 408 q 608 401 615 401 l 415 401 l 415 7 q 408 0 415 0 l 207 0 q 200 7 200 0 l 200 401 l 6 401 q -1 408 -1 401 l -1 1011 q 6 1018 -1 1018 l 207 1018 q 214 1011 214 1018 l 214 617 l 401 617 l 401 1011 q 408 1018 401 1018 l 608 1018 m 100 908 l 14 994 l 14 425 l 100 513 l 100 908 m 107 921 l 190 1004 l 24 1004 l 107 921 m 114 526 l 200 613 l 200 994 l 114 908 l 114 526 m 300 492 l 214 406 l 214 24 l 300 110 l 300 492 m 401 406 l 314 492 l 314 110 l 401 24 l 401 406 m 492 515 l 406 603 l 210 603 l 124 515 l 307 515 l 492 515 m 501 908 l 415 994 l 415 613 l 501 526 l 501 908 m 508 921 l 592 1004 l 425 1004 l 508 921 m 601 994 l 515 908 l 515 513 l 601 425 l 601 994 z "},"χ":{"ha":686,"x_min":0,"x_max":617,"o":"m 610 1018 q 617 1011 617 1018 l 617 610 q 614 604 617 607 l 519 508 l 614 414 l 610 408 l 617 408 l 617 7 q 610 0 617 0 l 408 0 q 401 7 401 0 l 401 401 l 215 401 l 215 7 q 208 0 215 0 l 7 0 q 0 7 0 0 l 0 408 q 3 414 0 411 l 97 508 l 3 604 l 7 610 l 0 610 l 0 1011 q 7 1018 0 1018 l 208 1018 q 215 1011 215 1018 l 215 617 l 401 617 l 401 1011 q 408 1018 401 1018 l 610 1018 m 100 492 l 14 406 l 14 24 l 100 110 l 100 492 m 100 908 l 14 994 l 14 613 l 100 526 l 100 908 m 107 921 l 192 1004 l 24 1004 l 107 921 m 114 908 l 114 526 l 201 613 l 201 994 l 114 908 m 201 406 l 114 492 l 114 110 l 201 24 l 201 406 m 492 515 l 406 603 l 211 603 l 125 515 l 492 515 m 503 492 l 415 406 l 415 24 l 503 110 l 503 492 m 503 908 l 415 994 l 415 613 l 503 526 l 503 908 m 510 921 l 593 1004 l 425 1004 l 510 921 m 517 492 l 517 110 l 603 24 l 603 406 l 517 492 m 603 994 l 517 908 l 517 526 l 603 613 l 603 994 z "},"γ":{"ha":688,"x_min":1,"x_max":618,"o":"m 611 1018 q 618 1011 618 1018 l 618 810 q 611 803 618 803 l 217 803 l 217 7 q 210 0 217 0 l 8 0 q 1 7 1 0 l 1 1011 q 8 1018 1 1018 l 611 1018 m 101 908 l 15 994 l 15 24 l 101 110 l 101 908 m 203 807 l 115 893 l 115 110 l 203 24 l 203 807 m 507 918 l 594 1004 l 25 1004 l 111 918 l 507 918 m 604 994 l 521 911 l 604 826 l 604 994 z "},"δ":{"ha":685,"x_min":-1,"x_max":615,"o":"m 613 815 q 615 810 615 813 l 615 7 q 608 0 615 0 l 6 0 q -1 7 -1 0 l -1 810 q 1 815 -1 813 l 201 1015 q 207 1018 204 1018 l 407 1018 q 413 1015 410 1018 l 613 815 m 122 918 l 490 918 l 404 1004 l 210 1004 l 122 918 m 214 803 l 214 215 l 400 215 l 400 803 l 214 803 m 99 893 l 13 807 l 13 24 l 99 110 l 99 893 m 113 124 l 200 211 l 200 807 l 113 893 l 113 124 m 490 114 l 404 201 l 210 201 l 122 114 l 490 114 m 501 893 l 414 807 l 414 211 l 501 124 l 501 893 m 601 807 l 515 893 l 515 110 l 601 24 l 601 807 z "},"θ":{"ha":686,"x_min":0,"x_max":617,"o":"m 610 1018 q 617 1011 617 1018 l 617 7 q 610 0 617 0 l 7 0 q 0 7 0 0 l 0 1011 q 7 1018 0 1018 l 610 1018 m 100 908 l 14 994 l 14 24 l 100 110 l 100 908 m 211 603 l 124 515 l 492 515 l 406 603 l 211 603 m 401 617 l 401 803 l 215 803 l 215 617 l 401 617 m 215 401 l 215 215 l 401 215 l 401 401 l 215 401 m 201 807 l 114 893 l 114 526 l 201 613 l 201 807 m 114 492 l 114 124 l 201 211 l 201 406 l 114 492 m 492 114 l 406 201 l 211 201 l 124 114 l 492 114 m 501 492 l 415 406 l 415 211 l 501 124 l 501 492 m 501 893 l 415 807 l 415 613 l 501 526 l 501 893 m 506 918 l 593 1004 l 24 1004 l 110 918 l 506 918 m 603 994 l 515 908 l 515 110 l 603 24 l 603 994 z "},"λ":{"ha":686,"x_min":0,"x_max":617,"o":"m 610 810 l 617 810 l 617 7 q 610 0 617 0 l 408 0 q 401 7 401 0 l 401 803 l 215 803 l 215 7 q 208 0 215 0 l 7 0 q 0 7 0 0 l 0 810 q 1 815 0 814 l 203 1015 q 208 1018 206 1018 l 408 1018 l 408 1011 l 414 1015 l 514 915 l 614 815 l 610 810 m 124 918 l 492 918 l 406 1004 l 211 1004 l 124 918 m 100 893 l 14 807 l 14 24 l 100 110 l 100 893 m 201 807 l 114 893 l 114 110 l 201 24 l 201 807 m 492 904 l 124 904 l 211 817 l 406 817 l 492 904 m 501 893 l 415 807 l 415 24 l 501 110 l 501 893 m 603 807 l 515 893 l 515 110 l 603 24 l 603 807 z "},"ξ":{"ha":686,"x_min":0,"x_max":617,"o":"m 107 401 q 100 408 100 401 l 100 610 q 107 617 100 617 l 510 617 q 517 610 517 617 l 517 408 q 510 401 517 401 l 107 401 m 503 593 l 418 508 l 503 425 l 503 593 m 124 603 l 211 515 l 406 515 l 492 603 l 124 603 m 114 425 l 199 508 l 114 593 l 114 425 m 610 315 q 617 308 617 315 l 617 7 q 610 0 617 0 l 7 0 q 0 7 0 0 l 0 308 q 7 315 0 315 l 208 315 q 215 308 215 315 l 215 215 l 401 215 l 401 308 q 408 315 401 315 l 610 315 m 100 204 l 14 292 l 14 24 l 100 110 l 100 204 m 107 218 l 192 301 l 24 301 l 107 218 m 114 124 l 201 211 l 201 292 l 114 204 l 114 124 m 492 114 l 406 201 l 211 201 l 124 114 l 492 114 m 503 204 l 415 292 l 415 211 l 503 124 l 503 204 m 510 218 l 593 301 l 425 301 l 510 218 m 603 292 l 517 204 l 517 110 l 603 24 l 603 292 m 610 1018 q 617 1011 617 1018 l 617 710 q 610 703 617 703 l 408 703 q 401 710 401 703 l 401 803 l 215 803 l 215 710 q 208 703 215 703 l 7 703 q 0 710 0 703 l 0 1011 q 7 1018 0 1018 l 610 1018 m 100 908 l 14 994 l 14 726 l 100 813 l 100 908 m 201 807 l 114 893 l 114 813 l 201 726 l 201 807 m 503 893 l 415 807 l 415 726 l 503 813 l 503 893 m 506 918 l 593 1004 l 24 1004 l 110 918 l 506 918 m 603 994 l 517 908 l 517 813 l 603 726 l 603 994 z "},"ς":{"ha":686,"x_min":0,"x_max":617,"o":"m 610 1018 q 617 1011 617 1018 l 617 810 q 610 803 617 803 l 215 803 l 215 617 l 610 617 q 617 610 617 617 l 617 7 q 610 0 617 0 l 7 0 q 0 7 0 0 l 0 208 q 7 215 0 215 l 401 215 l 401 401 l 7 401 q 0 408 0 401 l 0 1011 q 7 1018 0 1018 l 610 1018 m 100 908 l 14 994 l 14 425 l 100 513 l 100 908 m 97 107 l 14 190 l 14 24 l 97 107 m 492 114 l 406 201 l 24 201 l 110 114 l 492 114 m 501 492 l 415 406 l 415 211 l 501 124 l 501 492 m 603 593 l 515 506 l 515 110 l 603 24 l 603 593 m 211 603 l 124 515 l 506 515 l 593 603 l 211 603 m 201 613 l 201 807 l 114 893 l 114 526 l 201 613 m 506 918 l 593 1004 l 24 1004 l 110 918 l 506 918 m 603 994 l 519 911 l 603 826 l 603 994 z "},"π":{"ha":686,"x_min":0,"x_max":617,"o":"m 610 1018 q 617 1011 617 1018 l 617 7 q 610 0 617 0 l 408 0 q 401 7 401 0 l 401 803 l 215 803 l 215 7 q 208 0 215 0 l 7 0 q 0 7 0 0 l 0 1011 q 7 1018 0 1018 l 610 1018 m 100 908 l 14 994 l 14 24 l 100 110 l 100 908 m 201 807 l 114 893 l 114 110 l 201 24 l 201 807 m 501 893 l 415 807 l 415 24 l 501 110 l 501 893 m 506 918 l 593 1004 l 24 1004 l 110 918 l 506 918 m 603 994 l 515 908 l 515 110 l 603 24 l 603 994 z "},"σ":{"ha":686,"x_min":0,"x_max":617,"o":"m 610 1018 q 617 1011 617 1018 l 617 810 q 610 803 617 803 l 215 803 l 215 617 l 610 617 q 617 610 617 617 l 617 7 q 610 0 617 0 l 7 0 q 0 7 0 0 l 0 208 q 7 215 0 215 l 401 215 l 401 401 l 7 401 q 0 408 0 401 l 0 1011 q 7 1018 0 1018 l 610 1018 m 100 908 l 14 994 l 14 425 l 100 513 l 100 908 m 97 107 l 14 190 l 14 24 l 97 107 m 492 114 l 406 201 l 24 201 l 110 114 l 492 114 m 501 492 l 415 406 l 415 211 l 501 124 l 501 492 m 603 593 l 515 506 l 515 110 l 603 24 l 603 593 m 211 603 l 124 515 l 506 515 l 593 603 l 211 603 m 201 613 l 201 807 l 114 893 l 114 526 l 201 613 m 506 918 l 593 1004 l 24 1004 l 110 918 l 506 918 m 603 994 l 519 911 l 603 826 l 603 994 z "},"φ":{"ha":886,"x_min":0,"x_max":817,"o":"m 810 817 q 817 810 817 817 l 817 208 q 810 201 817 201 l 515 201 l 515 7 q 508 0 515 0 l 308 0 q 301 7 301 0 l 301 201 l 7 201 q 0 208 0 201 l 0 810 q 7 817 0 817 l 301 817 l 301 1011 q 308 1018 301 1018 l 508 1018 q 515 1011 515 1018 l 515 817 l 810 817 m 100 707 l 14 793 l 14 225 l 100 311 l 100 707 m 110 717 l 392 717 l 306 803 l 24 803 l 110 717 m 215 603 l 215 415 l 301 415 l 301 603 l 215 603 m 114 325 l 201 411 l 201 607 l 114 693 l 114 325 m 392 315 l 306 401 l 211 401 l 124 315 l 392 315 m 401 292 l 315 204 l 315 24 l 401 110 l 401 292 m 401 693 l 315 607 l 315 411 l 401 325 l 401 693 m 401 908 l 315 994 l 315 813 l 401 726 l 401 908 m 408 921 l 492 1004 l 325 1004 l 408 921 m 415 908 l 415 726 l 501 813 l 501 994 l 415 908 m 415 693 l 415 325 l 501 411 l 501 607 l 415 693 m 501 204 l 415 292 l 415 110 l 501 24 l 501 204 m 693 315 l 607 401 l 513 401 l 425 315 l 693 315 m 603 415 l 603 603 l 515 603 l 515 415 l 603 415 m 703 693 l 617 607 l 617 411 l 703 325 l 703 693 m 707 717 l 793 803 l 513 803 l 425 717 l 707 717 m 803 793 l 717 707 l 717 311 l 803 225 l 803 793 z "},"ψ":{"ha":888,"x_min":0,"x_max":818,"o":"m 811 1018 q 818 1011 818 1018 l 818 308 q 811 301 818 301 l 517 301 l 517 7 q 510 0 517 0 l 308 0 q 301 7 301 0 l 301 301 l 7 301 q 0 308 0 301 l 0 1011 q 7 1018 0 1018 l 208 1018 q 215 1011 215 1018 l 215 515 l 301 515 l 301 1011 q 308 1018 301 1018 l 510 1018 q 517 1011 517 1018 l 517 515 l 603 515 l 603 1011 q 610 1018 603 1018 l 811 1018 m 100 908 l 14 994 l 14 325 l 100 411 l 100 908 m 107 921 l 192 1004 l 24 1004 l 107 921 m 115 425 l 201 513 l 201 994 l 115 908 l 115 425 m 392 415 l 306 501 l 211 501 l 125 415 l 392 415 m 401 392 l 315 306 l 315 24 l 401 110 l 401 392 m 401 908 l 315 994 l 315 513 l 401 425 l 401 908 m 408 921 l 493 1004 l 325 1004 l 408 921 m 415 908 l 415 425 l 503 513 l 503 994 l 415 908 m 503 306 l 415 392 l 415 110 l 503 24 l 503 306 m 693 415 l 607 501 l 513 501 l 425 415 l 693 415 m 703 908 l 617 994 l 617 513 l 703 425 l 703 908 m 710 921 l 793 1004 l 626 1004 l 710 921 m 803 994 l 717 908 l 717 411 l 803 325 l 803 994 z "},"ω":{"ha":685,"x_min":-1,"x_max":615,"o":"m 608 215 q 615 208 615 215 l 615 7 q 608 0 615 0 l 6 0 q -1 7 -1 0 l -1 208 q 6 215 -1 215 l 608 215 m 96 107 l 13 190 l 13 24 l 96 107 m 504 114 l 592 201 l 22 201 l 108 114 l 504 114 m 601 190 l 518 107 l 601 24 l 601 190 m 608 1018 q 615 1011 615 1018 l 615 308 q 608 301 615 301 l 6 301 q -1 308 -1 301 l -1 1011 q 6 1018 -1 1018 l 608 1018 m 99 908 l 13 994 l 13 325 l 99 411 l 99 908 m 490 415 l 404 501 l 210 501 l 122 415 l 490 415 m 200 513 l 200 807 l 113 893 l 113 425 l 200 513 m 400 515 l 400 803 l 214 803 l 214 515 l 400 515 m 501 893 l 414 807 l 414 513 l 501 425 l 501 893 m 504 918 l 592 1004 l 22 1004 l 108 918 l 504 918 m 601 994 l 515 908 l 515 411 l 601 325 l 601 994 z "},"έ":{"ha":686,"x_min":0,"x_max":617,"o":"m 4 1056 q 0 1061 0 1056 l 0 1263 q 4 1268 0 1268 q 11 1267 10 1271 l 113 1167 q 113 1157 115 1161 l 11 1057 q 7 1054 8 1054 q 4 1056 4 1054 m 608 1018 q 617 1011 617 1018 l 617 810 q 608 803 617 803 l 214 803 l 214 617 l 608 617 q 617 610 617 617 l 617 408 q 608 401 617 401 l 214 401 l 214 215 l 608 215 q 617 208 617 215 l 617 7 q 608 0 617 0 l 7 0 q 0 7 0 0 l 0 1011 q 7 1018 0 1018 l 608 1018 m 100 908 l 14 994 l 14 24 l 100 110 l 100 908 m 601 190 l 518 107 l 601 24 l 601 190 m 210 201 l 124 114 l 506 114 l 592 201 l 210 201 m 200 211 l 200 406 l 114 492 l 114 124 l 200 211 m 601 593 l 518 508 l 601 425 l 601 593 m 210 603 l 124 515 l 506 515 l 592 603 l 210 603 m 200 613 l 200 807 l 114 894 l 114 526 l 200 613 m 506 918 l 592 1004 l 24 1004 l 110 918 l 506 918 m 601 994 l 518 911 l 601 826 l 601 994 z "},"ή":{"ha":686,"x_min":0,"x_max":617,"o":"m 4 1056 q 0 1061 0 1056 l 0 1263 q 4 1268 0 1268 q 11 1267 10 1271 l 113 1167 q 113 1157 115 1161 l 11 1057 q 7 1054 8 1054 q 4 1056 4 1054 m 610 1018 q 617 1011 617 1018 l 617 7 q 610 0 617 0 l 408 0 q 401 7 401 0 l 401 401 l 214 401 l 214 7 q 207 0 214 0 l 7 0 q 0 7 0 0 l 0 1011 q 7 1018 0 1018 l 207 1018 q 214 1011 214 1018 l 214 617 l 401 617 l 401 1011 q 408 1018 401 1018 l 610 1018 m 100 908 l 14 994 l 14 24 l 100 110 l 100 908 m 107 921 l 190 1004 l 24 1004 l 107 921 m 114 908 l 114 526 l 200 613 l 200 994 l 114 908 m 200 406 l 114 492 l 114 110 l 200 24 l 200 406 m 492 515 l 406 603 l 210 603 l 124 515 l 492 515 m 501 492 l 415 406 l 415 24 l 501 110 l 501 492 m 501 908 l 415 994 l 415 613 l 501 526 l 501 908 m 508 921 l 592 1004 l 425 1004 l 508 921 m 603 994 l 515 908 l 515 110 l 603 24 l 603 994 z "},"ί":{"ha":285,"x_min":0,"x_max":215,"o":"m 4 1056 q 0 1061 0 1056 l 0 1263 q 4 1268 0 1268 q 11 1267 10 1271 l 113 1167 q 113 1157 115 1161 l 11 1057 q 7 1054 8 1054 q 4 1056 4 1054 m 208 1018 q 215 1011 215 1018 l 215 7 q 208 0 215 0 l 7 0 q 0 7 0 0 l 0 1011 q 7 1018 0 1018 l 208 1018 m 101 908 l 14 994 l 14 24 l 101 110 l 101 908 m 108 921 l 192 1004 l 25 1004 l 108 921 m 201 994 l 115 908 l 115 110 l 201 24 l 201 994 z "},"ό":{"ha":688,"x_min":0,"x_max":618,"o":"m 4 1056 q 0 1061 0 1056 l 0 1263 q 4 1268 0 1268 q 11 1267 10 1271 l 113 1167 q 113 1157 115 1161 l 11 1057 q 7 1054 8 1054 q 4 1056 4 1054 m 611 1018 q 618 1011 618 1018 l 618 7 q 611 0 618 0 l 8 0 q 1 7 1 0 l 1 1011 q 8 1018 1 1018 l 611 1018 m 103 908 l 15 994 l 15 24 l 103 111 l 103 908 m 494 114 l 407 201 l 213 201 l 126 114 l 494 114 m 203 211 l 203 807 l 117 894 l 117 125 l 203 211 m 403 215 l 403 803 l 217 803 l 217 215 l 403 215 m 504 894 l 418 807 l 418 211 l 504 125 l 504 894 m 508 918 l 594 1004 l 26 1004 l 113 918 l 508 918 m 604 994 l 518 908 l 518 111 l 604 24 l 604 994 z "},"ύ":{"ha":685,"x_min":-1,"x_max":615,"o":"m 4 1056 q 0 1061 0 1056 l 0 1263 q 4 1268 0 1268 q 11 1267 10 1271 l 113 1167 q 113 1157 115 1161 l 11 1057 q 7 1054 8 1054 q 4 1056 4 1054 m 608 1018 q 615 1011 615 1018 l 615 408 q 608 401 615 401 l 415 401 l 415 7 q 408 0 415 0 l 207 0 q 200 7 200 0 l 200 401 l 6 401 q -1 408 -1 401 l -1 1011 q 6 1018 -1 1018 l 207 1018 q 214 1011 214 1018 l 214 617 l 401 617 l 401 1011 q 408 1018 401 1018 l 608 1018 m 100 908 l 14 994 l 14 425 l 100 513 l 100 908 m 107 921 l 190 1004 l 24 1004 l 107 921 m 114 526 l 200 613 l 200 994 l 114 908 l 114 526 m 300 492 l 214 406 l 214 24 l 300 110 l 300 492 m 401 406 l 314 492 l 314 110 l 401 24 l 401 406 m 492 515 l 406 603 l 210 603 l 124 515 l 307 515 l 492 515 m 501 908 l 415 994 l 415 613 l 501 526 l 501 908 m 508 921 l 592 1004 l 425 1004 l 508 921 m 601 994 l 515 908 l 515 513 l 601 425 l 601 994 z "},"ώ":{"ha":685,"x_min":0,"x_max":617,"o":"m 4 1056 q 0 1061 0 1056 l 0 1263 q 4 1268 0 1268 q 11 1267 10 1271 l 113 1167 q 113 1157 115 1161 l 11 1057 q 7 1054 8 1054 q 4 1056 4 1054 m 610 215 q 617 208 617 215 l 617 7 q 610 0 617 0 l 7 0 q 0 7 0 0 l 0 208 q 7 215 0 215 l 610 215 m 97 107 l 14 190 l 14 24 l 97 107 m 506 114 l 593 201 l 24 201 l 110 114 l 506 114 m 603 190 l 519 107 l 603 24 l 603 190 m 610 1018 q 617 1011 617 1018 l 617 308 q 610 301 617 301 l 7 301 q 0 308 0 301 l 0 1011 q 7 1018 0 1018 l 610 1018 m 100 908 l 14 994 l 14 325 l 100 411 l 100 908 m 492 415 l 406 501 l 211 501 l 124 415 l 492 415 m 201 513 l 201 807 l 114 893 l 114 425 l 201 513 m 401 515 l 401 803 l 215 803 l 215 515 l 401 515 m 503 893 l 415 807 l 415 513 l 503 425 l 503 893 m 506 918 l 593 1004 l 24 1004 l 110 918 l 506 918 m 603 994 l 517 908 l 517 411 l 603 325 l 603 994 z "},"C":{"ha":675,"x_min":0,"x_max":606,"o":"m 506 915 l 594 826 l 203 826 l 114 915 l 506 915 m 114 103 l 203 192 l 594 192 l 506 103 l 114 103 m 89 99 l 0 10 l 0 1008 l 89 919 l 89 99 m 10 1018 l 594 1018 l 506 929 l 99 929 l 10 1018 m 519 922 l 606 1008 l 606 836 l 519 922 m 519 96 l 606 182 l 606 10 l 519 96 m 103 114 l 103 904 l 192 815 l 192 203 l 103 114 m 10 0 l 99 89 l 506 89 l 594 0 l 10 0 z "},"A":{"ha":675,"x_min":0,"x_max":606,"o":"m 403 606 l 492 517 l 114 517 l 203 606 l 403 606 m 517 919 l 606 1008 l 606 10 l 517 99 l 517 919 m 99 929 l 10 1018 l 594 1018 l 506 929 l 99 929 m 89 99 l 0 10 l 0 1008 l 79 929 l 79 929 l 85 924 l 89 919 l 89 99 m 508 86 l 594 0 l 424 0 l 508 86 m 492 501 l 403 413 l 203 413 l 114 501 l 492 501 m 182 0 l 10 0 l 96 86 l 182 0 m 103 99 l 103 492 l 192 403 l 192 10 l 103 99 m 501 492 l 501 99 l 413 10 l 413 403 l 501 492 m 203 826 l 114 915 l 492 915 l 403 826 l 203 826 m 501 904 l 501 526 l 413 615 l 413 815 l 501 904 m 192 815 l 192 615 l 103 526 l 103 904 l 192 815 z "},"Ά":{"ha":675,"x_min":0,"x_max":606,"o":"m 492 517 l 114 517 l 203 606 l 403 606 l 492 517 m 606 1008 l 606 10 l 517 99 l 517 919 l 606 1008 m 10 1018 l 594 1018 l 506 929 l 99 929 l 10 1018 m 0 10 l 0 1008 l 79 929 l 79 929 l 85 924 l 89 919 l 89 99 l 0 10 m 594 0 l 424 0 l 508 86 l 594 0 m 403 413 l 203 413 l 114 501 l 492 501 l 403 413 m 10 0 l 96 86 l 182 0 l 10 0 m 103 492 l 192 403 l 192 10 l 103 99 l 103 492 m 501 99 l 413 10 l 413 403 l 501 492 l 501 99 m 114 915 l 492 915 l 403 826 l 203 826 l 114 915 m 501 526 l 413 615 l 413 815 l 501 904 l 501 526 m 192 615 l 103 526 l 103 904 l 192 815 l 192 615 m 86 1154 l 0 1069 l 0 1240 l 86 1154 z "},"B":{"ha":675,"x_min":0,"x_max":606,"o":"m 492 517 l 114 517 l 203 606 l 403 606 l 492 517 m 517 99 l 517 904 l 606 815 l 606 10 l 517 99 m 89 99 l 0 10 l 0 1008 l 89 919 l 89 99 m 99 929 l 10 1018 l 403 1018 l 492 929 l 99 929 m 506 89 l 594 0 l 10 0 l 99 89 l 506 89 m 192 815 l 192 615 l 103 526 l 103 904 l 192 815 m 492 501 l 403 413 l 203 413 l 114 501 l 492 501 m 413 203 l 413 403 l 501 492 l 501 114 l 413 203 m 501 526 l 413 615 l 413 815 l 501 904 l 501 526 m 403 192 l 492 103 l 114 103 l 203 192 l 403 192 m 203 826 l 114 915 l 492 915 l 403 826 l 203 826 m 192 203 l 103 114 l 103 492 l 192 403 l 192 203 z "}}}
